<svg width="371" height="247" viewBox="0 0 371 247" fill="none" xmlns="http://www.w3.org/2000/svg">
<path d="M272.201 158.618L271.818 162.048L278.487 154.252C279.285 154.336 280.086 154.378 280.888 154.379" stroke="#263238" stroke-linecap="round" stroke-linejoin="round"/>
<path d="M263.846 134.961C262.97 136.283 262.421 137.794 262.244 139.371C261.612 145.069 266.081 150.459 272.833 152.953L272.49 156.016" stroke="#263238" stroke-linecap="round" stroke-linejoin="round"/>
<path d="M266.438 132.124C266.004 132.475 265.591 132.853 265.203 133.256" stroke="#263238" stroke-linecap="round" stroke-linejoin="round"/>
<path d="M291.448 132.124C288.404 130.037 284.884 128.75 281.212 128.38C277.331 127.904 273.394 128.483 269.814 130.056" stroke="#263238" stroke-linecap="round" stroke-linejoin="round"/>
<path d="M285.529 153.919C291.899 152.601 296.725 148.529 297.289 143.247C297.7 139.552 295.971 135.99 292.879 133.255" stroke="#263238" stroke-linecap="round" stroke-linejoin="round"/>
<path d="M269.819 135.911C270.358 136.012 270.912 136.005 271.449 135.89C271.985 135.776 272.494 135.557 272.945 135.245L275.327 137.092C275.16 137.146 275.175 136.793 275.351 136.784C275.528 136.774 275.66 136.935 275.782 137.063C276.341 137.656 277.282 137.675 278.081 137.504C278.879 137.332 279.658 137.014 280.472 137.043C280.956 137.094 281.431 137.204 281.888 137.372C285.161 138.386 288.567 138.895 291.957 139.395" stroke="#263238" stroke-linecap="round" stroke-linejoin="round"/>
<path d="M267.007 139.395C267.497 139.366 270.226 139.395 270.618 139.067L271.284 140.228L272.019 139.518C272.147 140.008 272.274 140.498 272.397 140.958C272.95 141.091 272.887 140.022 273.377 139.704C273.527 139.63 273.7 139.616 273.861 139.664C274.022 139.712 274.159 139.819 274.244 139.964C274.404 140.265 274.482 140.603 274.469 140.944L277.821 141.218L278.473 141.272C278.705 140.917 279.05 140.649 279.453 140.512C279.33 141.287 280.305 141.728 281.079 141.884C284.892 142.662 288.723 143.333 292.575 143.898" stroke="#263238" stroke-linecap="round" stroke-linejoin="round"/>
<path d="M268.496 144.717C268.805 144.932 269.182 144.53 269.559 144.481C269.937 144.432 270.245 144.717 270.579 144.888C270.912 145.06 271.461 144.986 271.48 144.614C271.559 145.104 272.166 145.28 272.661 145.349L285.529 147.157" stroke="#263238" stroke-linecap="round" stroke-linejoin="round"/>
<path d="M96.32 127.978L101.475 134.917L100.441 125.837C101.673 125.239 102.852 124.535 103.964 123.735C109.246 119.913 111.373 113.763 109.437 108.809C108.08 105.35 104.9 102.998 100.882 102.023" stroke="#263238" stroke-linecap="round" stroke-linejoin="round"/>
<path d="M75.9605 117.032C75.7999 118.603 76.0148 120.19 76.5877 121.662C78.6751 127.003 85.1333 129.698 92.2677 128.767" stroke="#263238" stroke-linecap="round" stroke-linejoin="round"/>
<path d="M76.9356 113.312C76.7167 113.827 76.5286 114.354 76.3721 114.89" stroke="#263238" stroke-linecap="round" stroke-linejoin="round"/>
<path d="M99.0836 101.69C95.4175 101.251 91.7 101.744 88.2742 103.121C84.6177 104.503 81.4016 106.846 78.9642 109.902" stroke="#263238" stroke-linecap="round" stroke-linejoin="round"/>
<path d="M81.6886 115.091C82.7427 114.762 83.6236 114.03 84.1386 113.053L87.0786 113.582C86.9512 113.704 86.8042 113.386 86.9561 113.293C87.108 113.2 87.2991 113.293 87.4461 113.342C88.2203 113.606 89.0582 113.19 89.6854 112.666C90.3126 112.141 90.8516 111.49 91.5915 111.147C92.0435 110.966 92.5157 110.841 92.9978 110.774C96.369 110.157 99.6177 109.02 102.857 107.888" stroke="#263238" stroke-linecap="round" stroke-linejoin="round"/>
<path d="M80.8164 119.487C81.2525 119.227 83.6682 117.987 83.8642 117.527L84.9961 118.247C85.1039 117.923 85.2117 117.595 85.3146 117.267L86.3191 118.369C86.8728 118.232 86.3191 117.316 86.5837 116.816C86.6823 116.68 86.8287 116.587 86.9933 116.555C87.158 116.523 87.3286 116.555 87.4706 116.645C87.7504 116.832 87.9753 117.091 88.1223 117.394L91.2142 116.081L91.8218 115.826C91.8566 115.405 92.0288 115.008 92.3118 114.694C92.5666 115.444 93.6348 115.375 94.3894 115.155C98.1297 114.077 101.836 112.891 105.507 111.598" stroke="#263238" stroke-linecap="round" stroke-linejoin="round"/>
<path d="M84.609 123.505C84.9863 123.554 85.1333 123.015 85.442 122.799C85.7507 122.583 86.1623 122.696 86.5347 122.686C86.9071 122.676 87.3628 122.368 87.206 122.03C87.5049 122.427 88.1272 122.299 88.5927 122.133L100.843 117.747" stroke="#263238" stroke-linecap="round" stroke-linejoin="round"/>
<path d="M245.736 43.9138H123.559C121.18 43.9138 119.252 45.8422 119.252 48.2209V158.285C119.252 160.663 121.18 162.592 123.559 162.592H245.736C248.114 162.592 250.043 160.663 250.043 158.285V48.2209C250.043 45.8422 248.114 43.9138 245.736 43.9138Z" fill="white"/>
<path opacity="0.2" d="M250.043 108.922V158.412C250.043 159.52 249.603 160.582 248.82 161.366C248.038 162.15 246.976 162.591 245.868 162.592H123.432C122.323 162.592 121.26 162.151 120.476 161.368C119.692 160.584 119.252 159.521 119.252 158.412V148.612H119.512V155.217C119.512 155.845 119.635 156.467 119.876 157.047C120.116 157.627 120.469 158.154 120.913 158.597C121.357 159.041 121.884 159.393 122.464 159.633C123.045 159.872 123.666 159.995 124.294 159.995H242.575C243.203 159.995 243.825 159.872 244.405 159.633C244.985 159.393 245.512 159.041 245.957 158.597C246.401 158.154 246.753 157.627 246.993 157.047C247.234 156.467 247.358 155.845 247.358 155.217V116.262C247.358 115.38 247.007 114.534 246.383 113.91C245.759 113.286 244.913 112.935 244.031 112.935H119.252V108.922H250.043Z" fill="black"/>
<path d="M245.736 43.9138H123.559C121.18 43.9138 119.252 45.8422 119.252 48.2209V158.285C119.252 160.663 121.18 162.592 123.559 162.592H245.736C248.114 162.592 250.043 160.663 250.043 158.285V48.2209C250.043 45.8422 248.114 43.9138 245.736 43.9138Z" stroke="#263238" stroke-linecap="round" stroke-linejoin="round"/>
<path d="M238.655 123.015V117.345C238.656 117.07 238.602 116.797 238.497 116.542C238.392 116.287 238.237 116.056 238.042 115.861C237.848 115.666 237.616 115.512 237.361 115.406C237.107 115.301 236.834 115.247 236.558 115.248H132.737C132.181 115.248 131.647 115.469 131.254 115.862C130.861 116.256 130.64 116.789 130.64 117.345V123.015C130.64 123.571 130.419 124.104 130.025 124.498C129.632 124.891 129.099 125.112 128.542 125.112V125.112C127.985 125.112 127.45 125.333 127.056 125.727C126.662 126.122 126.44 126.656 126.44 127.214V138.401C126.44 140.98 127.465 143.454 129.289 145.278C131.113 147.102 133.587 148.127 136.167 148.127V148.127C136.581 148.127 136.979 148.292 137.272 148.585C137.565 148.878 137.73 149.276 137.73 149.69V153.042C137.73 154.279 138.221 155.465 139.096 156.34C139.971 157.215 141.158 157.707 142.395 157.707H226.9C228.137 157.707 229.324 157.215 230.199 156.34C231.073 155.465 231.565 154.279 231.565 153.042V149.69C231.565 149.276 231.73 148.878 232.023 148.585C232.316 148.292 232.713 148.127 233.128 148.127C234.405 148.127 235.67 147.875 236.85 147.387C238.03 146.898 239.102 146.181 240.006 145.278C240.909 144.375 241.625 143.303 242.114 142.123C242.603 140.943 242.854 139.678 242.854 138.401V127.214C242.854 126.657 242.634 126.123 242.241 125.729C241.847 125.335 241.314 125.113 240.757 125.112C240.201 125.112 239.667 124.891 239.273 124.498C238.879 124.105 238.656 123.571 238.655 123.015V123.015Z" fill="#263238"/>
<path d="M138.592 118.458H134.961C134.517 118.458 134.091 118.634 133.776 118.948C133.462 119.263 133.286 119.689 133.286 120.133V121.064C133.286 122.995 134.849 125.445 136.779 125.445C138.71 125.445 140.273 122.995 140.273 121.064V120.133C140.272 119.688 140.094 119.262 139.779 118.948C139.464 118.634 139.037 118.458 138.592 118.458V118.458Z" fill="white" stroke="#263238" stroke-linecap="round" stroke-linejoin="round"/>
<path d="M147.28 118.458H143.649C143.204 118.458 142.777 118.634 142.462 118.948C142.147 119.262 141.97 119.688 141.968 120.133V121.064C141.968 122.995 143.532 125.445 145.462 125.445C147.393 125.445 148.956 122.995 148.956 121.064V120.133C148.956 119.689 148.779 119.263 148.465 118.948C148.151 118.634 147.724 118.458 147.28 118.458V118.458Z" fill="white" stroke="#263238" stroke-linecap="round" stroke-linejoin="round"/>
<path d="M156.002 118.458H152.371C151.927 118.458 151.5 118.634 151.186 118.948C150.872 119.263 150.695 119.689 150.695 120.133V121.064C150.695 122.995 152.258 125.445 154.184 125.445C156.11 125.445 157.678 122.995 157.678 121.064V120.133C157.678 119.689 157.501 119.263 157.187 118.948C156.873 118.634 156.446 118.458 156.002 118.458V118.458Z" fill="white" stroke="#263238" stroke-linecap="round" stroke-linejoin="round"/>
<path d="M164.704 118.458H161.073C160.629 118.458 160.203 118.634 159.889 118.948C159.574 119.263 159.398 119.689 159.398 120.133V121.064C159.398 122.995 160.961 125.445 162.891 125.445C164.822 125.445 166.38 122.995 166.38 121.064V120.133C166.38 119.913 166.337 119.695 166.253 119.492C166.168 119.289 166.045 119.104 165.889 118.948C165.734 118.793 165.549 118.669 165.346 118.585C165.142 118.501 164.924 118.458 164.704 118.458V118.458Z" fill="white" stroke="#263238" stroke-linecap="round" stroke-linejoin="round"/>
<path d="M173.407 118.458H169.776C169.331 118.458 168.905 118.634 168.591 118.948C168.277 119.263 168.1 119.689 168.1 120.133V121.064C168.1 122.995 169.663 125.445 171.594 125.445C173.524 125.445 175.088 122.995 175.088 121.064V120.133C175.086 119.688 174.909 119.262 174.594 118.948C174.278 118.634 173.852 118.458 173.407 118.458V118.458Z" fill="white" stroke="#263238" stroke-linecap="round" stroke-linejoin="round"/>
<path d="M182.114 118.458H178.483C178.038 118.458 177.612 118.634 177.296 118.948C176.981 119.262 176.804 119.688 176.802 120.133V121.064C176.802 122.995 178.366 125.445 180.296 125.445C182.227 125.445 183.79 122.995 183.79 121.064V120.133C183.79 119.689 183.613 119.263 183.299 118.948C182.985 118.634 182.559 118.458 182.114 118.458V118.458Z" fill="white" stroke="#263238" stroke-linecap="round" stroke-linejoin="round"/>
<path d="M190.817 118.458H187.186C186.741 118.458 186.315 118.634 186.001 118.948C185.686 119.263 185.51 119.689 185.51 120.133V121.064C185.51 122.995 187.073 125.445 188.999 125.445C190.924 125.445 192.492 122.995 192.492 121.064V120.133C192.492 119.689 192.316 119.263 192.001 118.948C191.687 118.634 191.261 118.458 190.817 118.458V118.458Z" fill="white" stroke="#263238" stroke-linecap="round" stroke-linejoin="round"/>
<path d="M199.519 118.458H195.888C195.444 118.458 195.017 118.634 194.703 118.948C194.389 119.263 194.212 119.689 194.212 120.133V121.064C194.212 122.995 195.775 125.445 197.706 125.445C199.637 125.445 201.195 122.995 201.195 121.064V120.133C201.195 119.689 201.018 119.263 200.704 118.948C200.39 118.634 199.963 118.458 199.519 118.458V118.458Z" fill="white" stroke="#263238" stroke-linecap="round" stroke-linejoin="round"/>
<path d="M208.221 118.458H204.61C204.39 118.458 204.172 118.501 203.969 118.585C203.765 118.669 203.581 118.793 203.425 118.948C203.269 119.104 203.146 119.289 203.062 119.492C202.978 119.695 202.934 119.913 202.934 120.133V121.064C202.934 122.995 204.497 125.445 206.428 125.445C208.359 125.445 209.922 122.995 209.922 121.064V120.133C209.921 119.911 209.876 119.692 209.79 119.487C209.704 119.282 209.579 119.097 209.421 118.941C209.263 118.785 209.075 118.662 208.869 118.579C208.664 118.496 208.443 118.455 208.221 118.458V118.458Z" fill="white" stroke="#263238" stroke-linecap="round" stroke-linejoin="round"/>
<path d="M216.929 118.458H213.298C212.853 118.458 212.426 118.634 212.111 118.948C211.796 119.262 211.618 119.688 211.617 120.133V121.064C211.617 122.995 213.18 125.445 215.111 125.445C217.041 125.445 218.604 122.995 218.604 121.064V120.133C218.604 119.689 218.428 119.263 218.114 118.948C217.799 118.634 217.373 118.458 216.929 118.458V118.458Z" fill="white" stroke="#263238" stroke-linecap="round" stroke-linejoin="round"/>
<path d="M225.631 118.458H222C221.556 118.458 221.129 118.634 220.815 118.948C220.501 119.263 220.324 119.689 220.324 120.133V121.064C220.324 122.995 221.887 125.445 223.813 125.445C225.739 125.445 227.307 122.995 227.307 121.064V120.133C227.307 119.689 227.13 119.263 226.816 118.948C226.502 118.634 226.075 118.458 225.631 118.458V118.458Z" fill="white" stroke="#263238" stroke-linecap="round" stroke-linejoin="round"/>
<path d="M234.333 118.458H230.703C230.258 118.458 229.832 118.634 229.518 118.948C229.203 119.263 229.027 119.689 229.027 120.133V121.064C229.027 122.99 230.58 125.44 232.54 125.44C234.5 125.44 236.029 122.99 236.029 121.059V120.128C236.028 119.907 235.984 119.688 235.898 119.484C235.812 119.28 235.687 119.095 235.529 118.94C235.372 118.784 235.185 118.662 234.98 118.579C234.774 118.496 234.555 118.455 234.333 118.458V118.458Z" fill="white" stroke="#263238" stroke-linecap="round" stroke-linejoin="round"/>
<path d="M138.592 136.901H134.961C134.517 136.901 134.091 137.078 133.776 137.392C133.462 137.706 133.286 138.132 133.286 138.577V139.508C133.286 141.439 134.849 143.889 136.779 143.889C138.71 143.889 140.273 141.439 140.273 139.508V138.577C140.272 138.132 140.094 137.706 139.779 137.392C139.464 137.078 139.037 136.901 138.592 136.901V136.901Z" fill="white" stroke="#263238" stroke-linecap="round" stroke-linejoin="round"/>
<path d="M147.28 136.901H143.649C143.204 136.901 142.777 137.078 142.462 137.392C142.147 137.706 141.97 138.132 141.968 138.577V139.508C141.968 141.439 143.532 143.889 145.462 143.889C147.393 143.889 148.956 141.439 148.956 139.508V138.577C148.956 138.132 148.779 137.706 148.465 137.392C148.151 137.078 147.724 136.901 147.28 136.901V136.901Z" fill="white" stroke="#263238" stroke-linecap="round" stroke-linejoin="round"/>
<path d="M156.002 136.901H152.371C151.927 136.901 151.5 137.078 151.186 137.392C150.872 137.706 150.695 138.132 150.695 138.577V139.508C150.695 141.439 152.258 143.889 154.184 143.889C156.11 143.889 157.678 141.439 157.678 139.508V138.577C157.678 138.132 157.501 137.706 157.187 137.392C156.873 137.078 156.446 136.901 156.002 136.901V136.901Z" fill="white" stroke="#263238" stroke-linecap="round" stroke-linejoin="round"/>
<path d="M164.704 136.901H161.073C160.629 136.901 160.203 137.078 159.889 137.392C159.574 137.706 159.398 138.132 159.398 138.577V139.508C159.398 141.439 160.961 143.889 162.891 143.889C164.822 143.889 166.38 141.439 166.38 139.508V138.577C166.38 138.357 166.337 138.139 166.253 137.936C166.168 137.732 166.045 137.548 165.889 137.392C165.734 137.236 165.549 137.113 165.346 137.029C165.142 136.944 164.924 136.901 164.704 136.901V136.901Z" fill="white" stroke="#263238" stroke-linecap="round" stroke-linejoin="round"/>
<path d="M173.407 136.901H169.776C169.331 136.901 168.905 137.078 168.591 137.392C168.277 137.706 168.1 138.132 168.1 138.577V139.508C168.1 141.439 169.663 143.889 171.594 143.889C173.524 143.889 175.088 141.439 175.088 139.508V138.577C175.086 138.132 174.909 137.706 174.594 137.392C174.278 137.078 173.852 136.901 173.407 136.901V136.901Z" fill="white" stroke="#263238" stroke-linecap="round" stroke-linejoin="round"/>
<path d="M182.114 136.901H178.483C178.038 136.901 177.612 137.078 177.296 137.392C176.981 137.706 176.804 138.132 176.802 138.577V139.508C176.802 141.439 178.366 143.889 180.296 143.889C182.227 143.889 183.79 141.439 183.79 139.508V138.577C183.79 138.132 183.613 137.706 183.299 137.392C182.985 137.078 182.559 136.901 182.114 136.901Z" fill="white" stroke="#263238" stroke-linecap="round" stroke-linejoin="round"/>
<path d="M190.817 136.901H187.186C186.741 136.901 186.315 137.078 186.001 137.392C185.686 137.706 185.51 138.132 185.51 138.577V139.508C185.51 141.439 187.073 143.889 188.999 143.889C190.924 143.889 192.492 141.439 192.492 139.508V138.577C192.492 138.132 192.316 137.706 192.001 137.392C191.687 137.078 191.261 136.901 190.817 136.901V136.901Z" fill="white" stroke="#263238" stroke-linecap="round" stroke-linejoin="round"/>
<path d="M199.519 136.901H195.888C195.444 136.901 195.017 137.078 194.703 137.392C194.389 137.706 194.212 138.132 194.212 138.577V139.508C194.212 141.439 195.775 143.889 197.706 143.889C199.637 143.889 201.195 141.439 201.195 139.508V138.577C201.195 138.132 201.018 137.706 200.704 137.392C200.39 137.078 199.963 136.901 199.519 136.901V136.901Z" fill="white" stroke="#263238" stroke-linecap="round" stroke-linejoin="round"/>
<path d="M208.221 136.901H204.61C204.39 136.901 204.172 136.944 203.969 137.029C203.765 137.113 203.581 137.236 203.425 137.392C203.269 137.548 203.146 137.732 203.062 137.936C202.978 138.139 202.934 138.357 202.934 138.577V139.508C202.934 141.438 204.497 143.888 206.428 143.888C208.359 143.888 209.922 141.438 209.922 139.508V138.577C209.921 138.355 209.876 138.135 209.79 137.931C209.704 137.726 209.579 137.54 209.421 137.385C209.263 137.229 209.075 137.106 208.869 137.023C208.664 136.94 208.443 136.899 208.221 136.901V136.901Z" fill="white" stroke="#263238" stroke-linecap="round" stroke-linejoin="round"/>
<path d="M216.929 136.901H213.298C212.853 136.901 212.426 137.078 212.111 137.392C211.796 137.706 211.618 138.132 211.617 138.577V139.508C211.617 141.439 213.18 143.889 215.111 143.889C217.041 143.889 218.604 141.439 218.604 139.508V138.577C218.604 138.132 218.428 137.706 218.114 137.392C217.799 137.078 217.373 136.901 216.929 136.901V136.901Z" fill="white" stroke="#263238" stroke-linecap="round" stroke-linejoin="round"/>
<path d="M225.631 136.901H222C221.556 136.901 221.129 137.078 220.815 137.392C220.501 137.706 220.324 138.132 220.324 138.577V139.508C220.324 141.439 221.887 143.889 223.813 143.889C225.739 143.889 227.307 141.439 227.307 139.508V138.577C227.307 138.132 227.13 137.706 226.816 137.392C226.502 137.078 226.075 136.901 225.631 136.901Z" fill="white" stroke="#263238" stroke-linecap="round" stroke-linejoin="round"/>
<path d="M234.333 136.901H230.703C230.258 136.901 229.832 137.078 229.518 137.392C229.203 137.706 229.027 138.132 229.027 138.577V139.508C229.027 141.439 230.59 143.889 232.52 143.889C234.451 143.889 236.009 141.439 236.009 139.508V138.577C236.009 138.132 235.833 137.706 235.518 137.392C235.204 137.078 234.778 136.901 234.333 136.901V136.901Z" fill="white" stroke="#263238" stroke-linecap="round" stroke-linejoin="round"/>
<path d="M134.241 127.978H130.62C130.176 127.978 129.749 128.155 129.435 128.469C129.121 128.783 128.944 129.21 128.944 129.654V130.585C128.944 132.511 130.507 134.966 132.438 134.966C134.369 134.966 135.927 132.516 135.927 130.585V129.654C135.927 129.433 135.883 129.214 135.798 129.01C135.713 128.806 135.589 128.621 135.432 128.466C135.276 128.31 135.09 128.187 134.885 128.103C134.681 128.019 134.462 127.977 134.241 127.978V127.978Z" fill="white" stroke="#263238" stroke-linecap="round" stroke-linejoin="round"/>
<path d="M142.943 127.978H139.313C138.868 127.978 138.442 128.155 138.128 128.469C137.813 128.783 137.637 129.21 137.637 129.654V130.585C137.637 132.511 139.2 134.966 141.131 134.966C143.061 134.966 144.624 132.516 144.624 130.585V129.654C144.623 129.209 144.445 128.783 144.13 128.469C143.815 128.155 143.388 127.978 142.943 127.978V127.978Z" fill="white" stroke="#263238" stroke-linecap="round" stroke-linejoin="round"/>
<path d="M151.651 127.978H148.02C147.575 127.978 147.148 128.155 146.833 128.469C146.518 128.783 146.34 129.209 146.339 129.654V130.585C146.339 132.511 147.907 134.966 149.833 134.966C151.759 134.966 153.327 132.516 153.327 130.585V129.654C153.327 129.21 153.15 128.783 152.836 128.469C152.521 128.155 152.095 127.978 151.651 127.978V127.978Z" fill="white" stroke="#263238" stroke-linecap="round" stroke-linejoin="round"/>
<path d="M160.353 127.978H156.722C156.278 127.978 155.852 128.155 155.537 128.469C155.223 128.783 155.047 129.21 155.047 129.654V130.585C155.047 132.511 156.61 134.966 158.535 134.966C160.461 134.966 162.029 132.516 162.029 130.585V129.654C162.029 129.434 161.986 129.216 161.901 129.013C161.817 128.809 161.694 128.625 161.538 128.469C161.383 128.313 161.198 128.19 160.995 128.106C160.791 128.022 160.573 127.978 160.353 127.978V127.978Z" fill="white" stroke="#263238" stroke-linecap="round" stroke-linejoin="round"/>
<path d="M169.056 127.978H165.41C164.966 127.978 164.539 128.155 164.225 128.469C163.911 128.783 163.734 129.21 163.734 129.654V130.585C163.734 132.511 165.297 134.966 167.228 134.966C169.158 134.966 170.717 132.516 170.717 130.585V129.654C170.717 129.212 170.542 128.788 170.231 128.474C169.92 128.16 169.497 127.982 169.056 127.978V127.978Z" fill="white" stroke="#263238" stroke-linecap="round" stroke-linejoin="round"/>
<path d="M177.758 127.978H174.127C173.683 127.978 173.256 128.155 172.942 128.469C172.628 128.783 172.451 129.21 172.451 129.654V130.585C172.451 132.511 174.014 134.966 175.945 134.966C177.876 134.966 179.439 132.516 179.439 130.585V129.654C179.437 129.209 179.26 128.783 178.945 128.469C178.63 128.155 178.203 127.978 177.758 127.978V127.978Z" fill="white" stroke="#263238" stroke-linecap="round" stroke-linejoin="round"/>
<path d="M186.48 127.978H182.849C182.404 127.978 181.977 128.155 181.662 128.469C181.347 128.783 181.17 129.209 181.168 129.654V130.585C181.168 132.511 182.736 134.966 184.662 134.966C186.588 134.966 188.156 132.516 188.156 130.585V129.654C188.156 129.21 187.979 128.783 187.665 128.469C187.351 128.155 186.924 127.978 186.48 127.978V127.978Z" fill="white" stroke="#263238" stroke-linecap="round" stroke-linejoin="round"/>
<path d="M195.168 127.978H191.537C191.092 127.978 190.666 128.155 190.352 128.469C190.038 128.783 189.861 129.21 189.861 129.654V130.585C189.861 132.511 191.424 134.966 193.35 134.966C195.276 134.966 196.844 132.516 196.844 130.585V129.654C196.844 129.21 196.667 128.783 196.353 128.469C196.038 128.155 195.612 127.978 195.168 127.978Z" fill="white" stroke="#263238" stroke-linecap="round" stroke-linejoin="round"/>
<path d="M203.87 127.978H200.239C199.795 127.978 199.368 128.155 199.054 128.469C198.74 128.783 198.563 129.21 198.563 129.654V130.585C198.563 132.511 200.126 134.966 202.057 134.966C203.988 134.966 205.546 132.516 205.546 130.585V129.654C205.546 129.21 205.369 128.783 205.055 128.469C204.741 128.155 204.315 127.978 203.87 127.978Z" fill="white" stroke="#263238" stroke-linecap="round" stroke-linejoin="round"/>
<path d="M212.572 127.978H208.942C208.497 127.978 208.071 128.155 207.757 128.469C207.442 128.783 207.266 129.21 207.266 129.654V130.585C207.266 132.511 208.829 134.966 210.759 134.966C212.69 134.966 214.253 132.516 214.253 130.585V129.654C214.252 129.209 214.074 128.783 213.759 128.469C213.444 128.155 213.017 127.978 212.572 127.978V127.978Z" fill="white" stroke="#263238" stroke-linecap="round" stroke-linejoin="round"/>
<path d="M221.27 127.978H217.639C217.194 127.978 216.767 128.155 216.452 128.469C216.137 128.783 215.96 129.209 215.958 129.654V130.585C215.958 132.511 217.526 134.966 219.452 134.966C221.378 134.966 222.946 132.516 222.946 130.585V129.654C222.946 129.21 222.769 128.783 222.455 128.469C222.141 128.155 221.714 127.978 221.27 127.978Z" fill="white" stroke="#263238" stroke-linecap="round" stroke-linejoin="round"/>
<path d="M229.982 127.978H226.351C225.911 127.985 225.491 128.164 225.182 128.478C224.873 128.791 224.7 129.214 224.7 129.654V130.585C224.7 132.511 226.263 134.966 228.189 134.966C230.114 134.966 231.682 132.516 231.682 130.585V129.654C231.683 129.432 231.638 129.212 231.553 129.007C231.467 128.802 231.341 128.616 231.183 128.46C231.025 128.304 230.837 128.181 230.631 128.099C230.425 128.016 230.204 127.975 229.982 127.978V127.978Z" fill="white" stroke="#263238" stroke-linecap="round" stroke-linejoin="round"/>
<path d="M238.685 127.978H235.054C234.609 127.978 234.183 128.155 233.869 128.469C233.554 128.783 233.378 129.21 233.378 129.654V130.585C233.378 132.511 234.941 134.966 236.872 134.966C238.802 134.966 240.36 132.516 240.36 130.585V129.654C240.36 129.21 240.184 128.783 239.87 128.469C239.555 128.155 239.129 127.978 238.685 127.978V127.978Z" fill="white" stroke="#263238" stroke-linecap="round" stroke-linejoin="round"/>
<path d="M217.889 146.192H151.406C150.537 146.192 149.833 146.896 149.833 147.764V152.537C149.833 153.406 150.537 154.11 151.406 154.11H217.889C218.758 154.11 219.462 153.406 219.462 152.537V147.764C219.462 146.896 218.758 146.192 217.889 146.192Z" fill="white" stroke="#263238" stroke-linecap="round" stroke-linejoin="round"/>
<path d="M226.792 146.657H223.161C222.717 146.657 222.291 146.834 221.976 147.148C221.662 147.462 221.486 147.888 221.486 148.333V149.264C221.486 151.194 223.049 153.644 224.979 153.644C226.91 153.644 228.468 151.194 228.468 149.264V148.333C228.468 147.888 228.292 147.462 227.977 147.148C227.663 146.834 227.237 146.657 226.792 146.657Z" fill="white" stroke="#263238" stroke-linecap="round" stroke-linejoin="round"/>
<path d="M146.133 146.657H142.502C142.058 146.657 141.632 146.834 141.318 147.148C141.003 147.462 140.827 147.888 140.827 148.333V149.264C140.827 151.194 142.39 153.644 144.32 153.644C146.251 153.644 147.814 151.194 147.814 149.264V148.333C147.813 147.888 147.635 147.462 147.32 147.148C147.005 146.833 146.578 146.657 146.133 146.657V146.657Z" fill="white" stroke="#263238" stroke-linecap="round" stroke-linejoin="round"/>
<path opacity="0.2" d="M138.793 121.118C138.969 121.119 139.145 121.135 139.317 121.167C139.317 121.133 139.317 121.099 139.317 121.064V120.133C139.316 119.94 139.239 119.756 139.102 119.62C138.965 119.484 138.78 119.408 138.587 119.408H134.956C134.765 119.409 134.581 119.486 134.445 119.622C134.309 119.758 134.233 119.941 134.231 120.133V121.064C134.231 122.402 135.211 124.088 136.368 124.426C136.01 122.941 136.814 121.118 138.793 121.118Z" fill="black"/>
<path opacity="0.2" d="M147.692 120.868C147.803 120.861 147.914 120.861 148.025 120.868V120.114C148.024 119.922 147.947 119.738 147.811 119.602C147.675 119.467 147.492 119.39 147.3 119.389H143.669C143.476 119.389 143.291 119.465 143.154 119.601C143.017 119.737 142.94 119.921 142.939 120.114V121.045C142.939 122.515 144.1 124.352 145.389 124.475C144.796 122.956 145.575 120.868 147.692 120.868Z" fill="black"/>
<path opacity="0.2" d="M156.654 120.741H156.727V120.128C156.727 119.936 156.651 119.752 156.515 119.616C156.379 119.48 156.194 119.403 156.002 119.403H152.371C152.178 119.403 151.993 119.479 151.857 119.615C151.72 119.751 151.642 119.936 151.641 120.128V121.059C151.641 122.554 152.876 124.489 154.184 124.489C154.248 124.494 154.312 124.494 154.375 124.489C153.719 122.941 154.478 120.741 156.654 120.741Z" fill="black"/>
<path opacity="0.2" d="M164.802 120.491C165.006 120.485 165.21 120.502 165.41 120.54V120.114C165.41 119.921 165.334 119.737 165.198 119.601C165.062 119.465 164.877 119.389 164.685 119.389H161.054C160.862 119.389 160.677 119.465 160.541 119.601C160.405 119.737 160.329 119.921 160.329 120.114V121.045C160.329 122.446 161.407 124.23 162.622 124.475C161.789 122.936 162.509 120.491 164.802 120.491Z" fill="black"/>
<path opacity="0.2" d="M173.951 120.491H174.137V120.124C174.136 119.931 174.058 119.746 173.921 119.61C173.785 119.475 173.6 119.398 173.407 119.398H169.776C169.584 119.4 169.4 119.476 169.265 119.612C169.129 119.748 169.052 119.932 169.051 120.124V121.055C169.051 122.549 170.286 124.485 171.594 124.485C171.661 124.489 171.728 124.489 171.795 124.485C170.937 122.941 171.657 120.491 173.951 120.491Z" fill="black"/>
<path opacity="0.2" d="M182.727 120.54H182.839V120.114C182.838 119.922 182.761 119.738 182.625 119.602C182.49 119.467 182.306 119.39 182.114 119.389H178.483C178.29 119.389 178.105 119.465 177.969 119.601C177.832 119.737 177.754 119.921 177.753 120.114V121.045C177.753 122.539 178.988 124.475 180.296 124.475C180.376 124.482 180.456 124.482 180.536 124.475C179.733 122.931 180.463 120.54 182.727 120.54Z" fill="black"/>
<path opacity="0.2" d="M191.125 120.491C191.264 120.493 191.404 120.503 191.542 120.52V120.133C191.542 119.941 191.465 119.756 191.329 119.62C191.193 119.484 191.009 119.408 190.817 119.408H187.186C186.993 119.408 186.809 119.484 186.673 119.62C186.537 119.756 186.46 119.941 186.46 120.133V121.064C186.46 122.534 187.676 124.465 188.974 124.494C188.107 122.956 188.822 120.491 191.125 120.491Z" fill="black"/>
<path opacity="0.2" d="M200.244 120.618V120.128C200.244 119.936 200.168 119.752 200.032 119.616C199.896 119.48 199.711 119.403 199.519 119.403H195.888C195.696 119.403 195.511 119.48 195.375 119.616C195.239 119.752 195.163 119.936 195.163 120.128V121.059C195.163 122.554 196.393 124.489 197.706 124.489C197.837 124.487 197.968 124.466 198.093 124.426C197.387 122.917 198.108 120.687 200.244 120.618Z" fill="black"/>
<path opacity="0.2" d="M208.236 120.427C208.478 120.427 208.718 120.458 208.951 120.52V120.133C208.95 119.94 208.873 119.756 208.736 119.62C208.599 119.484 208.414 119.408 208.221 119.408H204.61C204.418 119.409 204.234 119.486 204.099 119.622C203.963 119.758 203.886 119.941 203.885 120.133V121.064C203.885 122.446 204.933 124.19 206.124 124.455C205.208 122.921 205.918 120.427 208.236 120.427Z" fill="black"/>
<path opacity="0.2" d="M217.134 120.427C217.309 120.428 217.483 120.444 217.654 120.476V120.133C217.653 119.941 217.576 119.758 217.44 119.622C217.304 119.486 217.121 119.409 216.929 119.408H213.298C213.105 119.408 212.92 119.484 212.783 119.62C212.646 119.756 212.569 119.94 212.568 120.133V121.064C212.568 122.534 213.744 124.401 215.018 124.494C214.096 122.956 214.802 120.427 217.134 120.427Z" fill="black"/>
<path opacity="0.2" d="M225.974 120.677C226.102 120.679 226.23 120.689 226.356 120.707V120.133C226.356 119.941 226.28 119.756 226.144 119.62C226.008 119.484 225.823 119.408 225.631 119.408H222C221.905 119.408 221.811 119.427 221.723 119.463C221.635 119.5 221.555 119.553 221.487 119.62C221.42 119.688 221.367 119.768 221.33 119.856C221.294 119.944 221.275 120.038 221.275 120.133V121.064C221.275 122.534 222.451 124.396 223.725 124.494C223.014 122.946 223.764 120.677 225.974 120.677Z" fill="black"/>
<path opacity="0.2" d="M235.059 120.564V120.133C235.059 119.941 234.982 119.756 234.846 119.62C234.71 119.484 234.526 119.408 234.333 119.408H230.703C230.51 119.408 230.326 119.484 230.19 119.62C230.054 119.756 229.977 119.941 229.977 120.133V121.064C229.977 122.559 231.207 124.494 232.52 124.494C232.709 124.492 232.896 124.452 233.069 124.377C232.373 122.897 233.03 120.731 235.059 120.564Z" fill="black"/>
<path opacity="0.2" d="M139.043 138.67C139.136 138.665 139.229 138.665 139.322 138.67V138.567C139.321 138.374 139.244 138.19 139.107 138.054C138.97 137.918 138.785 137.842 138.592 137.842H134.961C134.769 137.843 134.586 137.92 134.45 138.056C134.314 138.191 134.237 138.375 134.236 138.567V139.498C134.236 140.993 135.471 142.928 136.779 142.928C136.87 142.926 136.96 142.916 137.049 142.899C135.951 141.409 136.618 138.67 139.043 138.67Z" fill="black"/>
<path opacity="0.2" d="M147.569 138.67C147.722 138.67 147.874 138.684 148.025 138.709V138.582C148.024 138.39 147.947 138.206 147.811 138.07C147.675 137.935 147.492 137.858 147.3 137.857H143.669C143.476 137.857 143.291 137.933 143.154 138.069C143.017 138.205 142.94 138.389 142.939 138.582V139.513C142.939 141.007 144.173 142.943 145.482 142.943H145.589C144.467 141.434 145.129 138.67 147.569 138.67Z" fill="black"/>
<path opacity="0.2" d="M156.218 138.792C156.382 138.793 156.546 138.808 156.708 138.837V138.577C156.708 138.482 156.689 138.387 156.652 138.299C156.616 138.211 156.563 138.131 156.495 138.064C156.428 137.997 156.348 137.943 156.26 137.907C156.172 137.87 156.078 137.852 155.982 137.852H152.351C152.159 137.852 151.974 137.928 151.837 138.064C151.7 138.2 151.623 138.384 151.621 138.577V139.508C151.621 140.978 152.837 142.904 154.135 142.938C153.16 141.414 153.841 138.792 156.218 138.792Z" fill="black"/>
<path opacity="0.2" d="M165.052 138.856C165.178 138.857 165.304 138.865 165.43 138.881V138.577C165.43 138.482 165.411 138.387 165.374 138.299C165.338 138.211 165.285 138.131 165.217 138.064C165.15 137.997 165.07 137.943 164.982 137.907C164.894 137.87 164.8 137.852 164.704 137.852H161.073C160.978 137.852 160.884 137.87 160.796 137.907C160.708 137.943 160.628 137.997 160.561 138.064C160.493 138.131 160.44 138.211 160.403 138.299C160.367 138.387 160.348 138.482 160.348 138.577V139.508C160.348 141.002 161.578 142.938 162.891 142.938H162.95C162.009 141.404 162.71 138.856 165.052 138.856Z" fill="black"/>
<path opacity="0.2" d="M173.578 138.67C173.766 138.67 173.953 138.688 174.137 138.724V138.582C174.136 138.389 174.058 138.205 173.921 138.069C173.785 137.933 173.6 137.857 173.407 137.857H169.776C169.584 137.858 169.4 137.935 169.265 138.07C169.129 138.206 169.052 138.39 169.051 138.582V139.513C169.051 141.007 170.286 142.943 171.594 142.943C170.477 141.443 171.133 138.67 173.578 138.67Z" fill="black"/>
<path opacity="0.2" d="M182.413 138.729C182.556 138.73 182.698 138.741 182.839 138.763V138.577C182.838 138.385 182.761 138.201 182.625 138.066C182.49 137.93 182.306 137.853 182.114 137.852H178.483C178.29 137.852 178.105 137.928 177.969 138.064C177.832 138.2 177.754 138.384 177.753 138.577V139.508C177.753 141.002 178.988 142.938 180.296 142.938H180.389C179.331 141.419 180.007 138.729 182.413 138.729Z" fill="black"/>
<path opacity="0.2" d="M191.439 138.915H191.542V138.572C191.542 138.38 191.465 138.195 191.329 138.059C191.193 137.923 191.009 137.847 190.817 137.847H187.186C186.993 137.847 186.809 137.923 186.673 138.059C186.537 138.195 186.46 138.38 186.46 138.572V139.503C186.46 140.997 187.69 142.933 188.999 142.933C189.094 142.932 189.19 142.92 189.283 142.899C188.44 141.37 189.141 138.915 191.439 138.915Z" fill="black"/>
<path opacity="0.2" d="M200.2 138.729H200.229V138.577C200.229 138.482 200.211 138.387 200.174 138.299C200.138 138.211 200.084 138.131 200.017 138.064C199.95 137.997 199.87 137.943 199.782 137.907C199.694 137.87 199.599 137.852 199.504 137.852H195.888C195.793 137.852 195.698 137.87 195.61 137.907C195.522 137.943 195.443 137.997 195.375 138.064C195.308 138.131 195.254 138.211 195.218 138.299C195.182 138.387 195.163 138.482 195.163 138.577V139.508C195.163 141.002 196.393 142.938 197.706 142.938C197.856 142.936 198.005 142.909 198.147 142.86C197.152 141.34 197.843 138.729 200.2 138.729Z" fill="black"/>
<path opacity="0.2" d="M208.672 138.543H208.946C208.939 138.355 208.859 138.177 208.724 138.047C208.589 137.916 208.409 137.843 208.221 137.842H204.61C204.418 137.843 204.234 137.92 204.099 138.056C203.963 138.191 203.886 138.375 203.885 138.567V139.498C203.885 140.993 205.12 142.928 206.428 142.928C206.547 142.925 206.666 142.906 206.781 142.874C205.551 141.414 206.188 138.543 208.672 138.543Z" fill="black"/>
<path opacity="0.2" d="M217.639 138.67V138.582C217.638 138.39 217.561 138.206 217.425 138.07C217.29 137.935 217.106 137.858 216.914 137.857H213.283C213.09 137.857 212.905 137.933 212.768 138.069C212.632 138.205 212.554 138.389 212.553 138.582V139.513C212.553 141.007 213.788 142.943 215.096 142.943C215.263 142.94 215.429 142.91 215.586 142.855C214.562 141.336 215.238 138.67 217.639 138.67Z" fill="black"/>
<path opacity="0.2" d="M226.17 138.67H226.366V138.572C226.366 138.477 226.347 138.382 226.311 138.294C226.274 138.206 226.221 138.127 226.154 138.059C226.086 137.992 226.006 137.938 225.918 137.902C225.83 137.866 225.736 137.847 225.641 137.847H222.01C221.818 137.847 221.633 137.923 221.497 138.059C221.361 138.195 221.285 138.38 221.285 138.572V139.503C221.285 140.997 222.515 142.933 223.823 142.933C223.939 142.931 224.054 142.915 224.166 142.884C223.073 141.385 223.745 138.67 226.17 138.67Z" fill="black"/>
<path opacity="0.2" d="M234.745 139.042C234.853 139.042 234.961 139.042 235.059 139.042V138.552C235.059 138.36 234.982 138.176 234.846 138.04C234.71 137.904 234.526 137.827 234.333 137.827H230.703C230.51 137.827 230.326 137.904 230.19 138.04C230.054 138.176 229.977 138.36 229.977 138.552V139.483C229.977 140.978 231.207 142.913 232.52 142.913C231.761 141.394 232.496 139.042 234.745 139.042Z" fill="black"/>
<path opacity="0.2" d="M134.907 129.894H134.971V129.654C134.97 129.461 134.892 129.277 134.756 129.141C134.619 129.005 134.434 128.929 134.241 128.929H130.62C130.428 128.929 130.243 129.005 130.107 129.141C129.971 129.277 129.895 129.462 129.895 129.654V130.585C129.895 132.08 131.125 134.015 132.438 134.015C132.564 134.012 132.689 133.992 132.81 133.956C131.869 132.427 132.58 129.894 134.907 129.894Z" fill="black"/>
<path opacity="0.2" d="M143.429 129.894H143.674V129.644C143.672 129.451 143.595 129.267 143.458 129.131C143.321 128.995 143.136 128.919 142.943 128.919H139.313C139.121 128.92 138.937 128.997 138.801 129.133C138.665 129.268 138.589 129.452 138.587 129.644V130.575C138.587 132.07 139.822 134.005 141.13 134.005C141.202 134.01 141.274 134.01 141.346 134.005C140.381 132.471 141.077 129.894 143.429 129.894Z" fill="black"/>
<path opacity="0.2" d="M152.332 129.894H152.376V129.654C152.375 129.462 152.298 129.278 152.162 129.143C152.026 129.007 151.843 128.93 151.651 128.929H148.02C147.924 128.927 147.828 128.945 147.739 128.981C147.649 129.017 147.568 129.07 147.499 129.137C147.43 129.205 147.375 129.285 147.338 129.374C147.3 129.462 147.281 129.558 147.28 129.654V130.585C147.28 132.079 148.515 134.015 149.823 134.015C149.955 134.013 150.085 133.992 150.21 133.951C149.294 132.427 149.995 129.894 152.332 129.894Z" fill="black"/>
<path opacity="0.2" d="M160.853 129.85H161.078V129.664C161.078 129.471 161.002 129.287 160.866 129.151C160.73 129.015 160.546 128.939 160.353 128.939H156.722C156.53 128.939 156.346 129.015 156.21 129.151C156.074 129.287 155.997 129.471 155.997 129.664V130.595C155.997 132.089 157.227 134.025 158.535 134.025C158.624 134.023 158.713 134.013 158.8 133.995C157.786 132.471 158.472 129.85 160.853 129.85Z" fill="black"/>
<path opacity="0.2" d="M169.33 129.894C169.486 129.894 169.642 129.907 169.796 129.933V129.654C169.796 129.462 169.719 129.277 169.583 129.141C169.447 129.005 169.263 128.929 169.07 128.929H165.41C165.218 128.929 165.033 129.005 164.897 129.141C164.761 129.277 164.685 129.462 164.685 129.654V130.585C164.685 132.08 165.915 134.015 167.228 134.015C166.258 132.491 166.949 129.894 169.33 129.894Z" fill="black"/>
<path opacity="0.2" d="M178.091 129.581C178.222 129.581 178.353 129.589 178.483 129.605C178.47 129.422 178.387 129.25 178.253 129.125C178.119 129 177.942 128.93 177.758 128.929H174.127C173.935 128.93 173.751 129.007 173.616 129.143C173.48 129.278 173.403 129.462 173.402 129.654V130.585C173.402 132.08 174.637 134.015 175.945 134.015C176.039 134.013 176.133 134.002 176.224 133.981C174.95 132.525 175.573 129.581 178.091 129.581Z" fill="black"/>
<path opacity="0.2" d="M186.862 129.953C186.975 129.953 187.088 129.953 187.19 129.953V129.634C187.189 129.442 187.112 129.259 186.977 129.123C186.841 128.987 186.657 128.91 186.465 128.909H182.834C182.642 128.909 182.457 128.985 182.32 129.121C182.183 129.257 182.106 129.442 182.104 129.634V130.565C182.104 132.06 183.339 133.995 184.647 133.995H184.745C183.829 132.476 184.52 129.953 186.862 129.953Z" fill="black"/>
<path opacity="0.2" d="M195.893 129.654C195.893 129.462 195.816 129.277 195.68 129.141C195.544 129.005 195.36 128.929 195.168 128.929H191.537C191.442 128.929 191.347 128.948 191.259 128.984C191.171 129.02 191.091 129.074 191.024 129.141C190.957 129.209 190.903 129.289 190.867 129.377C190.83 129.464 190.812 129.559 190.812 129.654V130.585C190.812 132.08 192.041 134.015 193.35 134.015C193.611 134.009 193.867 133.938 194.095 133.809C193.105 132.349 193.703 129.85 195.893 129.654Z" fill="black"/>
<path opacity="0.2" d="M204.61 129.85V129.664C204.61 129.471 204.534 129.287 204.398 129.151C204.262 129.015 204.077 128.939 203.885 128.939H200.254C200.062 128.939 199.877 129.015 199.741 129.151C199.605 129.287 199.529 129.471 199.529 129.664V130.595C199.529 132.089 200.759 134.025 202.072 134.025C202.282 134.021 202.489 133.973 202.679 133.883C201.783 132.388 202.425 129.972 204.61 129.85Z" fill="black"/>
<path opacity="0.2" d="M212.999 129.703C213.102 129.703 213.205 129.703 213.303 129.703V129.639C213.301 129.446 213.224 129.262 213.087 129.126C212.95 128.99 212.765 128.914 212.573 128.914H208.942C208.75 128.915 208.566 128.992 208.43 129.128C208.295 129.264 208.218 129.447 208.216 129.639V130.57C208.216 132.065 209.451 134 210.76 134C210.852 133.999 210.944 133.987 211.034 133.966C209.897 132.491 210.549 129.703 212.999 129.703Z" fill="black"/>
<path opacity="0.2" d="M222.005 130.022V129.654C222.004 129.462 221.927 129.278 221.791 129.143C221.655 129.007 221.472 128.93 221.28 128.929H217.649C217.456 128.929 217.271 129.005 217.134 129.141C216.998 129.277 216.92 129.461 216.919 129.654V130.585C216.919 132.08 218.154 134.015 219.462 134.015C219.61 134.013 219.757 133.988 219.898 133.942C219.099 132.423 219.8 130.08 222.005 130.022Z" fill="black"/>
<path opacity="0.2" d="M230.296 129.767C230.433 129.769 230.571 129.778 230.707 129.796V129.654C230.707 129.462 230.631 129.277 230.495 129.141C230.359 129.005 230.175 128.929 229.982 128.929H226.351C226.256 128.929 226.162 128.948 226.074 128.984C225.986 129.02 225.906 129.074 225.839 129.141C225.771 129.209 225.718 129.289 225.681 129.377C225.645 129.464 225.626 129.559 225.626 129.654V130.585C225.626 132.08 226.856 134.015 228.164 134.015C228.21 134.018 228.256 134.018 228.302 134.015C227.204 132.501 227.87 129.767 230.296 129.767Z" fill="black"/>
<path opacity="0.2" d="M239.072 130.144C239.184 130.136 239.297 130.136 239.41 130.144V129.654C239.41 129.462 239.333 129.277 239.197 129.141C239.061 129.005 238.877 128.929 238.685 128.929H235.054C234.861 128.929 234.677 129.005 234.541 129.141C234.405 129.277 234.329 129.462 234.329 129.654V130.585C234.329 132.055 235.549 134.015 236.857 134.015C236.093 132.472 236.832 130.144 239.072 130.144Z" fill="black"/>
<path opacity="0.2" d="M218.511 152.566V147.735C218.511 147.408 218.246 147.142 217.918 147.142H151.376C151.049 147.142 150.784 147.408 150.784 147.735V152.566C150.784 152.894 151.049 153.159 151.376 153.159H217.918C218.246 153.159 218.511 152.894 218.511 152.566Z" fill="black"/>
<path opacity="0.2" d="M227.518 148.818V148.328C227.518 148.233 227.499 148.138 227.462 148.05C227.426 147.962 227.372 147.882 227.305 147.815C227.238 147.748 227.158 147.694 227.07 147.658C226.982 147.621 226.888 147.603 226.792 147.603H223.161C223.066 147.603 222.972 147.621 222.884 147.658C222.796 147.694 222.716 147.748 222.649 147.815C222.581 147.882 222.528 147.962 222.491 148.05C222.455 148.138 222.436 148.233 222.436 148.328V149.259C222.436 150.753 223.666 152.689 224.979 152.689C225.088 152.686 225.197 152.671 225.303 152.645C224.578 151.116 225.317 148.833 227.518 148.818Z" fill="black"/>
<path opacity="0.2" d="M146.437 148.504C146.58 148.505 146.722 148.517 146.863 148.539V148.333C146.862 148.14 146.785 147.956 146.648 147.82C146.511 147.684 146.326 147.608 146.133 147.608H142.502C142.311 147.609 142.127 147.686 141.991 147.822C141.855 147.957 141.779 148.141 141.777 148.333V149.264C141.777 150.758 143.012 152.694 144.32 152.694H144.404C143.36 151.175 144.046 148.504 146.437 148.504Z" fill="black"/>
<path opacity="0.2" d="M124.593 46.3051H244.702C245.527 46.3051 246.318 46.6329 246.902 47.2164C247.485 47.7999 247.813 48.5913 247.813 49.4166V76.8566H121.481V49.4166C121.481 48.5913 121.809 47.7999 122.393 47.2164C122.976 46.6329 123.768 46.3051 124.593 46.3051V46.3051Z" fill="black"/>
<path d="M234.882 51.4794H134.432C133.595 44.5231 132.118 37.6586 130.022 30.9729H239.312C237.183 37.651 235.699 44.5179 234.882 51.4794V51.4794Z" fill="white"/>
<path opacity="0.2" d="M235.872 44.8693C235.142 48.8579 234.892 51.4794 234.892 51.4794H134.442C134.442 51.4794 134.187 48.9069 133.437 44.8693H235.872Z" fill="black"/>
<path d="M234.882 51.4794H134.432C133.595 44.5231 132.118 37.6586 130.022 30.9729H239.312C237.183 37.651 235.699 44.5179 234.882 51.4794V51.4794Z" stroke="#263238" stroke-linecap="round" stroke-linejoin="round"/>
<path d="M233.515 68.7469H134.971V109.29H233.515V68.7469Z" fill="#263238"/>
<g opacity="0.4">
<path opacity="0.4" d="M181.786 105.703L182.305 105.727C182.959 95.617 183.612 85.4903 184.265 75.3473C183.432 85.4936 182.606 95.6121 181.786 105.703Z" fill="white"/>
<path opacity="0.4" d="M180.11 105.575L180.629 105.619C181.763 95.5745 182.895 85.4854 184.025 75.3522C182.722 85.4919 181.417 95.5663 180.11 105.575Z" fill="white"/>
<path opacity="0.4" d="M178.478 105.389C178.65 105.389 178.826 105.428 178.998 105.448C180.605 95.5108 182.222 85.4772 183.849 75.3473C182.052 85.487 180.262 95.501 178.478 105.389Z" fill="white"/>
<path opacity="0.4" d="M176.827 105.139L177.351 105.223C179.435 95.4225 181.536 85.4592 183.653 75.3325C181.366 85.469 179.091 95.4046 176.827 105.139Z" fill="white"/>
<path opacity="0.4" d="M175.181 104.831L175.71 104.938C178.258 95.3246 180.84 85.4593 183.457 75.3424C180.673 85.4625 177.915 95.2919 175.181 104.831Z" fill="white"/>
<path opacity="0.4" d="M173.544 104.458L174.073 104.591C177.077 95.1923 180.164 85.4462 183.261 75.3375C179.983 85.4462 176.714 95.1482 173.544 104.458Z" fill="white"/>
<path opacity="0.4" d="M171.912 104.017L172.446 104.174C175.876 95.0403 179.468 85.4265 183.065 75.3276C179.287 85.4265 175.524 94.9864 171.912 104.017Z" fill="white"/>
<path opacity="0.4" d="M170.31 103.517L170.844 103.689C174.72 94.8689 178.787 85.407 182.883 75.3228C178.586 85.407 174.333 94.8002 170.31 103.517Z" fill="white"/>
<path opacity="0.4" d="M168.683 102.944L169.222 103.14C173.515 94.6533 178.076 85.3825 182.673 75.313C177.885 85.3825 173.132 94.57 168.683 102.944Z" fill="white"/>
<path opacity="0.4" d="M167.096 102.297L167.635 102.523C172.319 94.4181 177.376 85.3727 182.477 75.3032C177.17 85.3531 171.932 94.3495 167.096 102.297Z" fill="white"/>
<path opacity="0.4" d="M165.523 101.572L166.062 101.832C171.118 94.1632 176.67 85.3187 182.281 75.2933C176.469 85.3187 170.726 94.0799 165.523 101.572Z" fill="white"/>
<path opacity="0.4" d="M163.974 100.768L164.513 101.062C169.903 93.8742 175.965 85.2796 182.085 75.2787C176.503 84.0896 170.458 92.5981 163.974 100.768V100.768Z" fill="white"/>
<path opacity="0.4" d="M162.47 99.8865C162.646 99.9992 162.833 100.102 163.014 100.21C169.814 92.289 176.124 83.9598 181.908 75.2689C175.989 83.902 169.495 92.1265 162.47 99.8865Z" fill="white"/>
<path opacity="0.4" d="M160.966 98.9114L161.5 99.2789C168.838 91.8065 175.589 83.7794 181.693 75.2689C175.462 83.7197 168.528 91.6286 160.966 98.9114V98.9114Z" fill="white"/>
<path opacity="0.4" d="M181.497 75.2395C173.613 85.113 165.9 92.6443 159.53 97.8481L160.054 98.2548C167.919 91.2835 175.099 83.5767 181.497 75.2395V75.2395Z" fill="white"/>
<path opacity="0.4" d="M181.301 75.2247C172.902 85.0247 164.695 92.1885 158.134 96.6965L158.653 97.1424C165.126 92.3502 173.123 85.0492 181.301 75.2247Z" fill="white"/>
<path opacity="0.4" d="M181.09 75.2101C172.187 84.9366 163.514 91.679 156.806 95.4422C156.967 95.6088 157.129 95.7754 157.296 95.9322C163.94 91.8652 172.422 84.9611 181.09 75.2101Z" fill="white"/>
<path opacity="0.4" d="M180.909 75.1904C171.52 84.8189 162.396 91.1154 155.581 94.1044L156.071 94.6385C162.818 91.3212 171.736 84.8483 180.909 75.1904Z" fill="white"/>
<path opacity="0.4" d="M154.454 92.6737C154.596 92.8697 154.743 93.0657 154.89 93.2568C161.725 90.7333 171.06 84.7112 180.718 75.1758C170.864 84.6671 161.328 90.4932 154.454 92.6737Z" fill="white"/>
<path opacity="0.4" d="M153.454 91.1841C153.581 91.3899 153.714 91.5957 153.846 91.8015C160.706 90.0767 170.447 84.5348 180.522 75.1415C170.251 84.4809 160.339 89.817 153.454 91.1841Z" fill="white"/>
<path opacity="0.4" d="M152.601 89.67C152.709 89.8856 152.822 90.0963 152.935 90.3119C159.795 89.3809 169.869 84.329 180.326 75.1464C169.698 84.2408 159.461 89.082 152.601 89.67Z" fill="white"/>
<path opacity="0.4" d="M151.906 88.1216C151.994 88.3372 152.087 88.5577 152.18 88.7733C159.001 88.6067 169.33 84.0546 180.11 75.1121C169.208 83.9615 158.717 88.2931 151.906 88.1216Z" fill="white"/>
<path opacity="0.4" d="M183.447 105.771H183.961C184.118 95.6447 184.282 85.505 184.451 75.3522C184.108 85.4984 183.774 95.6382 183.447 105.771Z" fill="white"/>
<path opacity="0.4" d="M185.103 105.781H185.623C185.296 95.6545 184.969 85.5147 184.642 75.3619L185.103 105.781Z" fill="white"/>
<path opacity="0.4" d="M186.759 105.737H187.279C186.462 95.6431 185.645 85.5164 184.829 75.3571C185.472 85.5033 186.116 95.63 186.759 105.737Z" fill="white"/>
<path opacity="0.4" d="M188.44 105.634L188.959 105.595C187.653 95.5761 186.346 85.4952 185.039 75.3522C186.163 85.4952 187.297 95.5892 188.44 105.634Z" fill="white"/>
<path opacity="0.4" d="M190.072 105.477L190.591 105.414C188.814 95.5124 187.017 85.4903 185.201 75.3473C186.838 85.4903 188.461 95.5336 190.072 105.477Z" fill="white"/>
<path opacity="0.4" d="M191.723 105.257L192.247 105.178C189.993 95.4275 187.715 85.4838 185.412 75.3473C187.529 85.487 189.632 95.4569 191.723 105.257Z" fill="white"/>
<path opacity="0.4" d="M193.369 104.978L193.894 104.88C191.173 95.3213 188.411 85.4756 185.608 75.3424C188.215 85.4756 190.802 95.354 193.369 104.978Z" fill="white"/>
<path opacity="0.4" d="M195.006 104.635L195.54 104.512C192.365 95.2021 189.092 85.4658 185.804 75.3375C188.91 85.4675 191.978 95.2332 195.006 104.635Z" fill="white"/>
<path opacity="0.4" d="M196.643 104.233L197.172 104.081C193.556 95.0305 189.787 85.4608 186 75.3276C189.601 85.451 193.188 95.0599 196.643 104.233Z" fill="white"/>
<path opacity="0.4" d="M198.264 103.757L198.803 103.581C194.751 94.8493 190.473 85.4511 186.196 75.3228C190.302 85.4315 194.379 94.9032 198.264 103.757Z" fill="white"/>
<path opacity="0.4" d="M199.877 103.214L200.416 103.013C195.957 94.6386 191.194 85.4119 186.392 75.313C191.003 85.4119 195.574 94.7023 199.877 103.214Z" fill="white"/>
<path opacity="0.4" d="M201.474 102.601C201.655 102.523 201.841 102.454 202.018 102.376C197.167 94.4083 191.904 85.3874 186.588 75.3032C191.708 85.3874 196.77 94.4769 201.474 102.601Z" fill="white"/>
<path opacity="0.4" d="M203.057 101.92L203.601 101.66C198.382 94.1485 192.615 85.3628 186.784 75.2982C192.414 85.353 197.98 94.2269 203.057 101.92Z" fill="white"/>
<path opacity="0.4" d="M204.61 101.151C204.791 101.058 204.973 100.955 205.149 100.857C198.642 92.6578 192.574 84.1198 186.97 75.2787C193.124 85.3237 199.22 93.9428 204.61 101.151Z" fill="white"/>
<path opacity="0.4" d="M206.149 100.303L206.697 99.9796C199.642 92.1911 193.12 83.9355 187.176 75.2689C192.982 83.9941 199.318 92.3545 206.149 100.303V100.303Z" fill="white"/>
<path opacity="0.4" d="M187.372 75.2542C193.5 83.8044 200.281 91.8678 207.653 99.372L208.197 99.0045C200.596 91.6906 193.63 83.7454 187.372 75.2542V75.2542Z" fill="white"/>
<path opacity="0.4" d="M187.568 75.2395C193.996 83.6168 201.216 91.3553 209.128 98.3479C209.309 98.2156 209.481 98.0784 209.657 97.9412C203.267 92.7374 195.496 85.1718 187.568 75.2395Z" fill="white"/>
<path opacity="0.4" d="M187.764 75.2247C195.996 85.108 204.042 92.4384 210.534 97.2306C210.71 97.0836 210.892 96.9366 211.063 96.7847C204.478 92.2865 196.216 85.1031 187.764 75.2247Z" fill="white"/>
<path opacity="0.4" d="M187.95 75.2101C196.696 85.0101 205.223 91.9632 211.887 96.0253C212.058 95.8636 212.22 95.6921 212.377 95.5353C205.664 91.777 196.927 85.0101 187.95 75.2101Z" fill="white"/>
<path opacity="0.4" d="M188.156 75.1904C197.402 84.9218 206.389 91.4241 213.146 94.7169L213.636 94.1779C206.82 91.2232 197.623 84.9022 188.156 75.1904Z" fill="white"/>
<path opacity="0.4" d="M214.356 93.3254C214.508 93.1294 214.65 92.9334 214.797 92.7325C207.913 90.601 198.289 84.7553 188.337 75.1758C198.078 84.7945 207.506 90.8362 214.356 93.3254Z" fill="white"/>
<path opacity="0.4" d="M215.419 91.8504L215.821 91.2232C208.927 89.9247 198.921 84.5739 188.543 75.1561C198.73 84.6278 208.53 90.1844 215.419 91.8504Z" fill="white"/>
<path opacity="0.4" d="M216.37 90.3266C216.488 90.111 216.6 89.8954 216.713 89.6749C209.853 89.1849 199.509 84.3388 188.783 75.1366C199.308 84.4172 209.51 89.4789 216.37 90.3266Z" fill="white"/>
<path opacity="0.4" d="M188.93 75.1121C199.828 84.1575 210.294 88.7096 217.105 88.7782C217.203 88.5577 217.296 88.3372 217.389 88.1167C210.588 88.396 199.984 84.0595 188.93 75.1121Z" fill="white"/>
</g>
<path opacity="0.2" d="M170.31 76.0823C168.453 80.8451 170.462 94.7023 183.863 94.7023C197.265 94.7023 202.131 84.966 201.587 78.9488L219.477 76.0676C219.477 76.0676 224.96 91.2184 213.317 101.817C201.675 112.416 161.319 111.73 152.788 103.674C144.257 95.6186 148.99 79.7034 148.99 79.7034L170.31 76.0823Z" fill="black"/>
<path d="M248.828 55.5318V52.19C248.827 52.0663 248.867 51.9458 248.94 51.8461C249.013 51.7465 249.116 51.6729 249.234 51.6363L251.684 50.8719V47.5301C251.684 47.1298 251.843 46.7459 252.126 46.4629C252.409 46.1799 252.793 46.0209 253.194 46.0209H256.134C256.278 46.0181 256.419 46.0718 256.525 46.1705C256.631 46.2693 256.694 46.4053 256.702 46.5501V47.6281C256.702 47.7754 256.644 47.9167 256.54 48.0213C256.436 48.1259 256.296 48.1854 256.148 48.1867H252.41V51.455C252.408 51.5535 252.381 51.65 252.332 51.7356C252.284 51.8212 252.214 51.8932 252.13 51.945L250.043 53.2092V55.5367L248.828 55.5318Z" fill="#999999" stroke="#263238" stroke-linecap="round" stroke-linejoin="round"/>
<path d="M252.052 55.5317H248.828V65.1749H252.052V55.5317Z" fill="#263238"/>
<path d="M256.084 54.7134H252.052V65.9932H256.084V54.7134Z" fill="#757575"/>
<path opacity="0.2" d="M256.075 61.5833H252.052V65.9932H256.075V61.5833Z" fill="black"/>
<path d="M256.084 54.7134H252.052V65.9932H256.084V54.7134Z" stroke="#263238" stroke-linecap="round" stroke-linejoin="round"/>
<path d="M117.243 65.17H120.467V55.5268H117.243V65.17Z" fill="#263238"/>
<path d="M113.21 65.9883H117.243V54.7085H113.21V65.9883Z" fill="#757575"/>
<path opacity="0.2" d="M117.248 61.5833H113.215V65.8855H117.248V61.5833Z" fill="black"/>
<path d="M113.21 65.9883H117.243V54.7085H113.21V65.9883Z" stroke="#263238" stroke-linecap="round" stroke-linejoin="round"/>
<path d="M119.982 60.9267C120.273 60.1628 120.318 59.327 120.111 58.5363C119.904 57.7455 119.454 57.0394 118.826 56.5167L116.454 54.5567C116.303 54.4295 116.128 54.3348 115.939 54.2785C115.749 54.2221 115.551 54.2054 115.355 54.2293C115.159 54.2532 114.97 54.3173 114.8 54.4174C114.63 54.5176 114.483 54.6517 114.367 54.8115L104.964 67.7818C104.785 68.0244 104.688 68.3182 104.689 68.6197V82.5504C104.689 82.7373 104.726 82.9225 104.798 83.095C104.871 83.2675 104.976 83.4239 105.109 83.5552C105.243 83.6865 105.4 83.7901 105.574 83.8598C105.747 83.9296 105.933 83.9642 106.12 83.9616V83.9616C106.494 83.9616 106.853 83.8129 107.118 83.5482C107.383 83.2836 107.531 82.9246 107.531 82.5504V71.2363C107.532 70.957 107.619 70.6848 107.781 70.4572L114.813 60.6572C114.874 60.5711 114.953 60.4988 115.044 60.4448C115.135 60.3907 115.236 60.3562 115.341 60.3433C115.446 60.3304 115.553 60.3394 115.654 60.3698C115.755 60.4002 115.849 60.4514 115.93 60.52L117.223 61.6176C117.544 61.8894 117.95 62.0387 118.37 62.039V62.039C118.719 62.0369 119.06 61.9296 119.347 61.7313C119.635 61.5329 119.856 61.2525 119.982 60.9267V60.9267Z" fill="white" stroke="#263238" stroke-linecap="round" stroke-linejoin="round"/>
<path d="M118.042 59.6575C118.412 59.6575 118.713 59.357 118.713 58.9862C118.713 58.6155 118.412 58.3149 118.042 58.3149C117.671 58.3149 117.37 58.6155 117.37 58.9862C117.37 59.357 117.671 59.6575 118.042 59.6575Z" fill="#999999" stroke="#263238" stroke-linecap="round" stroke-linejoin="round"/>
<path d="M245.839 50.8718H123.461V69.825H245.839V50.8718Z" fill="#263238"/>
<path opacity="0.2" d="M244.07 52.2977H125.181C124.808 52.2977 124.505 52.6005 124.505 52.9739V56.0413C124.505 56.4148 124.808 56.7175 125.181 56.7175H244.07C244.443 56.7175 244.746 56.4148 244.746 56.0413V52.9739C244.746 52.6005 244.443 52.2977 244.07 52.2977Z" fill="white"/>
<path d="M234.882 73.6372H134.432C131.601 67.1668 130.102 60.1929 130.022 53.1307H239.312C239.312 62.6269 234.882 73.6372 234.882 73.6372Z" fill="white"/>
<g opacity="0.7">
<path opacity="0.7" d="M142.556 72.0986C142.556 72.0986 144.757 71.981 145.986 71.2411C147.216 70.5012 147.128 71.9075 147.834 72.0006C148.539 72.0937 150.205 71.5106 151.087 71.5106C151.969 71.5106 151.298 72.0496 152.293 72.0006C153.287 71.9516 152.753 72.0496 153.273 71.9516L157.531 71.2411C157.531 71.2411 159.692 70.8246 160.128 71.0353C160.564 71.246 161.137 72.2848 161.774 72.0153C162.411 71.7458 162.073 71.5253 163.033 71.5253C163.627 71.5281 164.218 71.6139 164.788 71.7801C164.788 71.7801 164.876 71.5302 165.317 71.5253H166.106C166.106 71.5253 167.777 71.9663 168.041 71.9663C168.306 71.9663 170.281 71.5302 170.349 71.5253C170.418 71.5204 172.309 71.0353 172.309 71.0353C172.71 71.4548 173.219 71.7564 173.779 71.9075C174.495 72.0006 175.249 71.8095 175.788 72.0496C176.327 72.2897 178.101 71.9516 178.101 71.9516C178.524 71.9544 178.947 71.9871 179.365 72.0496C179.914 72.1749 180.486 72.1581 181.026 72.0006C182.02 71.7379 183.063 71.7211 184.064 71.9516C185.657 72.2407 187.122 71.5155 187.798 71.5106C188.474 71.5057 191.179 71.8095 192.11 71.8095C193.041 71.8095 195.506 72.1427 197.221 71.9516C198.936 71.7605 200.058 72.1917 201.209 72.1917C202.361 72.1917 203.591 72.1427 203.855 72.1427C204.12 72.1427 205.394 71.3097 207.217 71.5106C209.04 71.7115 207.418 71.2607 208.54 71.5106C209.662 71.7605 210.549 72.0006 211.024 72.0496C211.405 72.0719 211.788 72.0555 212.166 72.0006L214.126 71.8585H223.896" stroke="#263238" stroke-linecap="round" stroke-linejoin="round"/>
<path opacity="0.7" d="M140.523 68.3158C140.523 68.3158 146.574 68.3158 147.667 68.2178C148.76 68.1198 149.343 67.5612 149.926 67.5612C150.509 67.5612 153.454 68.1198 153.454 68.1198C153.54 67.9371 153.68 67.7853 153.856 67.6854C154.031 67.5854 154.233 67.542 154.434 67.5612C155.233 67.5612 154.826 67.6347 155.561 67.9287C156.296 68.2227 155.914 67.9287 156.301 68.2178C156.878 68.4769 157.488 68.655 158.114 68.747C158.114 68.747 160.843 68.8744 160.946 68.2178C161.049 67.5612 162.416 68.747 162.416 68.747C162.416 68.747 166.121 68.2178 167.551 68.2178C168.982 68.2178 172.569 67.9287 172.569 67.9287C172.569 67.9287 175.509 68.3158 175.646 68.3158C175.783 68.3158 176.268 69.0851 176.793 68.747C177.317 68.4089 177.822 68.0218 178.444 68.1198C179.022 68.2631 179.581 68.4736 180.11 68.747L181.477 68.0218L183.045 68.1198C183.045 68.1198 184.643 69.1831 185.784 68.747C186.653 68.3996 187.502 68.0037 188.327 67.5612L189.734 68.747H190.655L193.384 68.2178C193.594 68.476 193.877 68.6646 194.196 68.7591C194.516 68.8535 194.856 68.8493 195.173 68.747C196.329 68.4138 207.379 68.747 210.191 68.747C213.004 68.747 213.621 68.0218 213.621 68.0218L215.787 68.747H226.567" stroke="#263238" stroke-linecap="round" stroke-linejoin="round"/>
</g>
<path opacity="0.2" d="M235.906 70.8049C235.313 72.5689 234.882 73.6371 234.882 73.6371H134.432C134.432 73.6371 133.942 72.6081 133.271 70.8049H235.906Z" fill="black"/>
<path opacity="0.2" d="M237.999 63.3864C237.661 64.8564 237.288 66.292 236.921 67.5611H132.178C131.816 66.3165 131.443 64.9102 131.12 63.3864H237.999Z" fill="black"/>
<path d="M234.882 73.6372H134.432C131.601 67.1668 130.102 60.1929 130.022 53.1307H239.312C239.312 62.6269 234.882 73.6372 234.882 73.6372Z" stroke="#263238" stroke-linecap="round" stroke-linejoin="round"/>
<path d="M123.437 49.8967H120.443V70.8099H123.437V49.8967Z" fill="#757575"/>
<path opacity="0.2" d="M123.378 64.6064H120.462V70.8098H123.378V64.6064Z" fill="black"/>
<path d="M123.437 49.8967H120.443V70.8099H123.437V49.8967Z" stroke="#263238" stroke-linecap="round" stroke-linejoin="round"/>
<path d="M248.852 49.8967H245.858V70.8099H248.852V49.8967Z" fill="#757575"/>
<path opacity="0.2" d="M248.852 64.6064H245.834V70.8098H248.852V64.6064Z" fill="black"/>
<path d="M248.852 49.8967H245.858V70.8099H248.852V49.8967Z" stroke="#263238" stroke-linecap="round" stroke-linejoin="round"/>
<path d="M245.883 49.0197V64.2733H123.412V49.0197H122.236V65.2974H247.059V49.0197H245.883Z" fill="#999999" stroke="#263238" stroke-linecap="round" stroke-linejoin="round"/>
<path d="M253.12 74.7152V108.922C253.12 109.499 252.891 110.052 252.483 110.46C252.075 110.868 251.521 111.098 250.944 111.098H118.336C117.759 111.098 117.205 110.868 116.797 110.46C116.389 110.052 116.16 109.499 116.16 108.922V74.7152C116.16 74.1382 116.389 73.5848 116.797 73.1768C117.205 72.7688 117.759 72.5396 118.336 72.5396H179.439V74.7152C179.439 74.7152 169.007 83.7655 151.019 87.1024C153.596 98.7693 167.679 107.682 184.672 107.682C201.665 107.682 215.748 98.7595 218.33 87.1024C200.318 83.7655 189.886 74.7152 189.886 74.7152V72.52H250.959C251.245 72.5219 251.528 72.5803 251.792 72.6917C252.055 72.8031 252.294 72.9654 252.495 73.1694C252.696 73.3733 252.854 73.6148 252.961 73.88C253.069 74.1453 253.123 74.4291 253.12 74.7152Z" fill="white" stroke="#263238" stroke-linecap="round" stroke-linejoin="round"/>
<path d="M253.12 74.7152V108.922C253.12 109.208 253.064 109.492 252.954 109.756C252.844 110.02 252.684 110.26 252.481 110.462C252.279 110.664 252.038 110.824 251.774 110.934C251.509 111.043 251.226 111.098 250.939 111.098H118.336C118.05 111.098 117.766 111.043 117.502 110.934C117.237 110.824 116.997 110.664 116.794 110.462C116.592 110.26 116.431 110.02 116.321 109.756C116.212 109.492 116.155 109.208 116.155 108.922V74.7152C116.156 74.1373 116.387 73.5834 116.795 73.1748C117.204 72.7662 117.758 72.536 118.336 72.5347H179.439V74.7152C179.439 74.7152 169.002 83.7606 151.019 87.1024C153.596 98.7693 167.679 107.682 184.677 107.682C201.675 107.682 215.748 98.7595 218.33 87.1024C200.318 83.7606 189.886 74.7152 189.886 74.7152V72.52H250.959C251.537 72.5252 252.088 72.7592 252.493 73.1708C252.899 73.5823 253.124 74.1378 253.12 74.7152V74.7152Z" fill="white"/>
<path opacity="0.2" d="M250.18 75.2395V106.82C250.18 107.03 250.138 107.238 250.058 107.432C249.977 107.626 249.859 107.802 249.71 107.95C249.561 108.098 249.384 108.215 249.19 108.294C248.996 108.374 248.788 108.414 248.578 108.412H119.639C119.43 108.413 119.222 108.372 119.029 108.293C118.835 108.213 118.66 108.096 118.512 107.948C118.364 107.8 118.246 107.624 118.167 107.43C118.087 107.237 118.046 107.029 118.047 106.82V75.2395C118.046 75.0297 118.087 74.8219 118.166 74.6278C118.246 74.4338 118.363 74.2573 118.511 74.1085C118.659 73.9597 118.835 73.8415 119.028 73.7607C119.222 73.6798 119.429 73.6378 119.639 73.6372H179.419V74.7152C179.419 74.7152 168.982 83.7606 150.999 87.1024C153.577 98.7693 167.659 107.682 184.657 107.682C201.655 107.682 215.728 98.7595 218.31 87.1024C200.298 83.7606 189.866 74.7152 189.866 74.7152V73.6372H248.592C249.015 73.6411 249.419 73.8116 249.716 74.1117C250.013 74.4117 250.18 74.8171 250.18 75.2395V75.2395Z" fill="white"/>
<path d="M253.12 74.7152V108.922C253.12 109.208 253.064 109.492 252.954 109.756C252.844 110.02 252.684 110.26 252.481 110.462C252.279 110.664 252.038 110.824 251.774 110.934C251.509 111.043 251.226 111.098 250.939 111.098H118.336C118.05 111.098 117.766 111.043 117.502 110.934C117.237 110.824 116.997 110.664 116.794 110.462C116.592 110.26 116.431 110.02 116.321 109.756C116.212 109.492 116.155 109.208 116.155 108.922V74.7152C116.156 74.1373 116.387 73.5834 116.795 73.1748C117.204 72.7662 117.758 72.536 118.336 72.5347H179.439V74.7152C179.439 74.7152 169.002 83.7606 151.019 87.1024C153.596 98.7693 167.679 107.682 184.677 107.682C201.675 107.682 215.748 98.7595 218.33 87.1024C200.318 83.7606 189.886 74.7152 189.886 74.7152V72.52H250.959C251.537 72.5252 252.088 72.7592 252.493 73.1708C252.899 73.5823 253.124 74.1378 253.12 74.7152V74.7152Z" stroke="#263238" stroke-linecap="round" stroke-linejoin="round"/>
<path opacity="0.2" d="M209.314 121.236L215.826 139.4C215.826 139.4 218.644 119.408 220.324 119.408C222.005 119.408 225.626 130.34 225.626 130.34C225.626 130.34 227.86 124.636 229.977 124.431C232.094 124.225 234.01 138.435 234.01 138.435L234.338 169.976L231.668 217.678C231.668 217.678 214.631 198.911 209.662 194.074C204.693 189.238 199.945 178.595 198.573 176.434C197.201 174.273 196.853 162.959 196.853 162.959C198.59 160.737 199.498 157.978 199.421 155.158C199.421 155.158 203.419 148.465 203.174 143.526C202.929 138.587 202.312 119.393 209.314 121.236Z" fill="black" fill-opacity="0.7"/>
<path d="M260.573 209.23L234.779 222.798C234.779 222.661 231.388 217.168 227.292 210.955C225.44 208.142 223.441 205.187 221.544 202.512C218.438 198.136 214.488 194.358 214.15 193.535C213.17 191.085 205.614 181.912 203.924 178.345C202.233 174.778 201.846 163.68 201.102 161.068C200.357 158.456 202.493 155.962 204.208 154.747C205.923 153.532 207.721 150.337 207.721 150.337C207.721 150.337 205.825 142.948 205.806 139.189C205.786 135.431 204.507 122.314 206.036 121.089C207.565 119.864 208.932 120.378 209.314 121.221C210.568 123.999 211.695 130.987 212.661 134.206C213.626 137.425 215.439 146.765 216.331 147.436C217.223 148.107 218.81 145.589 218.81 145.589C218.81 145.589 218.962 137.749 219.3 134.5L218.81 124.21C218.81 124.21 217.894 118.026 220.025 117.438C222.965 116.63 224.038 118.477 224.372 119.256C224.705 120.035 226.077 124.524 226.077 124.524L226.155 124.832C226.155 124.862 226.155 124.891 226.155 124.925V124.979C226.178 125.064 226.203 125.157 226.229 125.259C226.283 125.464 226.346 125.709 226.415 125.989C227.067 128.542 228.321 133.652 228.267 134.912C228.194 136.612 227.601 146.03 228.439 147.985L229.742 134.975C229.742 134.975 227.64 124.95 228.252 123.504C228.865 122.059 231.751 123.656 232.094 124.225C232.437 124.793 235.24 128.233 235.74 129.546L236.23 130.859C236.23 130.859 236.921 127.753 238.542 128.561C240.164 129.37 240.365 133.319 240.478 135.044C240.591 136.769 241.767 147.862 241.948 147.882C242.129 147.902 244.001 153.664 243.746 157.471C243.212 165.62 244.623 171.681 244.672 174.807C244.721 177.934 242.364 185.176 242.364 185.176C242.448 185.318 243.986 187.935 244.408 190.233C244.716 191.918 250.209 198.009 254.698 202.855C257.819 206.197 260.436 208.931 260.573 209.23Z" fill="white"/>
<path opacity="0.4" d="M227.297 210.965C225.445 208.152 223.446 205.197 221.549 202.522C218.443 198.146 214.493 194.368 214.155 193.545C213.175 191.095 205.619 181.922 203.929 178.355C202.238 174.788 201.851 163.689 201.107 161.078C200.362 158.466 202.498 155.972 204.213 154.757C205.928 153.542 207.726 150.347 207.726 150.347C207.726 150.347 205.83 142.958 205.811 139.199C205.791 135.441 204.512 122.324 206.041 121.099C207.57 119.874 208.937 120.388 209.319 121.231C210.573 124.009 211.7 130.997 212.666 134.216C213.631 137.435 215.444 146.775 216.336 147.446C217.227 148.117 218.815 145.599 218.815 145.599C218.815 145.599 218.967 137.759 219.305 134.51L218.815 124.22C218.815 124.22 217.899 118.036 220.03 117.448C222.97 116.64 224.043 118.487 224.377 119.266C224.71 120.045 226.082 124.534 226.082 124.534L226.16 124.842C226.16 124.872 226.16 124.901 226.16 124.935V124.989C226.18 125.074 226.204 125.167 226.234 125.269C226.288 125.474 226.351 125.719 226.42 125.999C225.66 124.798 224.617 123.774 223.22 123.505C219.3 122.74 220.148 127.101 220.52 129.718C220.731 131.454 220.69 133.212 220.398 134.936L221.378 134.373C220.672 135.632 219.663 146.098 219.663 148.426C219.663 150.753 217.82 151.528 216.169 150.847C214.518 150.165 213.93 139.483 212.675 137.568C211.421 135.652 207.932 139.312 207.775 142.659C207.619 146.005 210.74 155.987 210 158.339C209.26 160.691 209.27 169.609 209.27 169.609L208.368 167.311C208.427 167.624 208.368 168.678 206.482 171.779C205.773 172.902 205.315 174.164 205.138 175.48C204.961 176.796 205.07 178.134 205.458 179.404C206.609 181.947 212.45 188.65 213.43 189.341C213.43 189.341 214.14 186.43 216.37 187.205C215.611 188.411 215.058 189.736 214.733 191.125C214.273 193.261 218.923 194.628 220.378 196.662C221.27 197.901 221.868 201.679 227.297 210.965Z" fill="white"/>
<path opacity="0.4" d="M254.727 202.86C250.141 198.239 242.071 193.839 242.561 192.688C243.217 191.139 242.384 187.842 240.973 185.166C239.562 182.491 241.463 178.149 241.463 178.149L242.335 180.673C243.033 177.762 243.115 174.738 242.575 171.794C241.683 166.791 240.988 168.55 240.988 168.55C240.988 168.55 241.169 164.042 241.968 161.582C242.766 159.123 243.438 153.15 242.335 149.617C241.233 146.084 238.905 146.75 238.283 147.965C237.661 149.181 238.327 153.919 238.841 155.472C239.356 157.025 237.166 159.637 237.122 157.697C237.077 155.756 236.249 150.347 236.249 150.347L237.91 139.483L236.249 130.855C236.249 130.855 236.94 127.748 238.562 128.556C240.184 129.365 240.385 133.314 240.498 135.039C240.61 136.764 241.786 147.858 241.968 147.877C242.149 147.897 244.021 153.659 243.766 157.466C243.232 165.615 244.643 171.676 244.692 174.803C244.741 177.929 242.384 185.171 242.384 185.171C242.467 185.313 244.006 187.93 244.427 190.228C244.736 191.913 250.229 198.004 254.717 202.85L254.727 202.86Z" fill="white"/>
<path opacity="0.4" d="M235.74 129.546C235.833 129.791 235.911 129.992 235.97 130.154C234.412 126.533 231.756 127.655 231.286 128.684C230.815 129.713 232.398 136.097 232.756 137.087C233.113 138.077 231.335 145.981 231.075 148.597C230.815 151.214 230.124 151.748 230.124 151.748C228.365 151.88 228.164 147.024 228.164 146.358C228.199 146.916 228.307 147.466 228.488 147.995L229.791 134.985C229.791 134.985 227.64 124.95 228.252 123.504C228.865 122.059 231.751 123.656 232.094 124.225C232.437 124.793 235.24 128.233 235.74 129.546Z" fill="white"/>
<path d="M260.573 209.23C260.24 208.475 244.937 193.06 244.403 190.228C243.972 187.866 242.355 185.166 242.355 185.166C242.355 185.166 244.712 177.939 244.663 174.798C244.614 171.657 243.193 165.61 243.737 157.461C243.991 153.654 242.124 147.892 241.938 147.872C241.752 147.853 240.576 136.759 240.468 135.034C240.36 133.309 240.16 129.36 238.533 128.551C236.906 127.743 236.22 130.85 236.22 130.85L235.73 129.536C235.24 128.223 232.427 124.783 232.084 124.215C231.741 123.647 228.86 122.044 228.243 123.495C227.625 124.945 229.776 134.956 229.776 134.956L228.483 147.98C227.645 146.02 228.238 136.607 228.311 134.907C228.385 133.206 226.082 124.519 226.082 124.519C226.082 124.519 224.7 120.05 224.377 119.246C224.053 118.443 222.97 116.62 220.03 117.428C217.899 118.016 218.815 124.2 218.815 124.2L219.305 134.49C218.977 137.754 218.815 145.579 218.815 145.579C218.815 145.579 217.227 148.093 216.336 147.426C215.444 146.76 213.631 137.425 212.666 134.196C211.7 130.967 210.573 123.99 209.319 121.211C208.937 120.368 207.57 119.854 206.041 121.079C204.512 122.304 205.786 135.416 205.811 139.18C205.835 142.943 207.726 150.327 207.726 150.327C207.726 150.327 205.928 153.502 204.213 154.737C202.498 155.972 200.362 158.441 201.107 161.058C201.851 163.675 202.238 174.778 203.929 178.335C205.619 181.893 213.156 191.075 214.155 193.525C214.493 194.349 218.443 198.127 221.549 202.502C227.65 211.092 234.779 222.592 234.779 222.788" stroke="#263238" stroke-linecap="round" stroke-linejoin="round"/>
<path d="M207.721 150.352C207.721 150.352 208.937 156.374 208.893 157.383C208.893 157.383 207.829 162.033 207.819 165.047C207.075 166.182 206.408 167.366 205.82 168.589C205.409 169.677 204.674 172.353 204.978 173.842" stroke="#263238" stroke-linecap="round" stroke-linejoin="round"/>
<path d="M205.502 159.25C205.502 159.25 208.481 159.274 208.29 160.529" stroke="#263238" stroke-linecap="round" stroke-linejoin="round"/>
<path d="M207.819 165.047C207.819 165.047 205.908 164.219 205.237 165.331" stroke="#263238" stroke-linecap="round" stroke-linejoin="round"/>
<path d="M218.82 145.599C218.82 145.599 218.683 150.214 217.468 149.847" stroke="#263238" stroke-linecap="round" stroke-linejoin="round"/>
<path d="M228.483 147.98C228.483 147.98 228.13 150.503 229.081 151.283" stroke="#263238" stroke-linecap="round" stroke-linejoin="round"/>
<path d="M236.235 130.859C236.235 130.859 237.558 137.229 237.861 138.739C238.165 140.248 236.357 147.951 236.391 149.955C236.426 151.959 237.283 154.825 237.166 156.173" stroke="#263238" stroke-linecap="round" stroke-linejoin="round"/>
<path d="M241.517 179.237C241.517 179.237 241.091 183.397 242.369 185.176" stroke="#263238" stroke-linecap="round" stroke-linejoin="round"/>
<path d="M215.826 187.469C215.826 187.469 212.974 190.066 214.018 193.261" stroke="#263238" stroke-linecap="round" stroke-linejoin="round"/>
<path d="M234.569 155.09C234.613 156.922 233.54 159.059 233.427 161.592" stroke="#263238" stroke-linecap="round" stroke-linejoin="round"/>
<path d="M225.484 153.453C226.092 154.953 224.769 158.216 224.568 159.441C224.487 160.399 224.592 161.364 224.876 162.283" stroke="#263238" stroke-linecap="round" stroke-linejoin="round"/>
<path d="M242.561 158.618C242.316 160.21 241.188 161.347 240.973 166.247" stroke="#263238" stroke-linecap="round" stroke-linejoin="round"/>
<path d="M214.738 152.988C215.562 153.884 215.008 158.167 215.228 158.868" stroke="#263238" stroke-linecap="round" stroke-linejoin="round"/>
<path d="M230.09 128.316C230.09 128.316 232.893 126.263 235.304 128.684" stroke="#263238" stroke-linecap="round" stroke-linejoin="round"/>
<path d="M220.437 123.598C220.437 123.598 220.927 122.779 223.294 122.98C225.66 123.181 226.082 124.514 226.082 124.514" stroke="#263238" stroke-linecap="round" stroke-linejoin="round"/>
<path d="M213.523 137.587C213.523 137.587 212.729 136.416 210.637 136.803C208.545 137.19 207.614 140.15 207.614 140.15" fill="white"/>
<path d="M213.523 137.587C213.523 137.587 212.729 136.416 210.637 136.803C208.545 137.19 207.614 140.15 207.614 140.15" stroke="#263238" stroke-linecap="round" stroke-linejoin="round"/>
<path d="M241.953 147.882C241.953 147.882 240.208 145.354 238.111 146.436" stroke="#263238" stroke-linecap="round" stroke-linejoin="round"/>
<path opacity="0.2" d="M167.64 129.36C170.58 131.639 168.1 145.623 168.1 145.623L168.36 150.175L173.402 147.98L175.7 157.707C175.7 157.707 175.641 161.269 177.508 162.607C177.508 162.607 177.969 170.598 177.508 176.439C177.048 182.28 167.708 189.145 164.489 195.275C161.27 201.405 140.273 219.422 140.273 219.422L122.496 210.965L135.348 159.054L146.864 144.251L153.689 127.224C153.689 127.224 154.86 138.347 154.179 145.844L167.64 129.36Z" fill="black" fill-opacity="0.7"/>
<path d="M172.589 160.426C172.143 162.572 173.216 174.337 173.03 175.925C172.843 177.512 163.484 188.175 163.014 188.983C162.544 189.792 156.286 193.393 154.831 195.113C148.03 203.046 144.316 210.352 141.331 217.678C140.758 219.089 140.209 220.505 139.67 221.926L112.681 206.246C114.95 203.433 117.091 200.934 119.051 198.661C122.971 194.05 126.092 190.36 127.621 186.876C128.09 185.987 128.628 185.135 129.228 184.328C129.836 183.466 130.38 182.755 130.38 182.755C130.38 182.755 128.42 177.233 128.876 175.499C129.331 173.764 128.312 159.505 128.312 159.505C128.312 159.505 126.984 149.798 125.676 147.348C125.355 146.708 125.209 145.995 125.255 145.28C125.318 143.041 126.617 140.219 127.254 136.95C128.106 132.54 127.695 130.36 130.37 131.884C133.046 133.408 131.796 142.664 131.796 142.664L135.839 151.621C136.902 149.455 135.839 143.134 135.785 141.64C135.785 141.395 135.785 140.988 135.745 140.459C135.662 137.881 135.491 132.516 135.711 130.399C135.711 130.281 135.711 130.174 135.75 130.076C136.079 127.89 137.25 120.937 137.995 120.163C139.102 119.016 140.861 118.051 142.517 120.653C143.443 122.123 143.046 133.78 143.046 133.78C143.046 133.78 146.888 129.145 148.054 128.013C149.22 126.881 152.758 124.813 153.704 127.209C154.65 129.605 151.161 137.009 151.161 137.009C151.891 138.724 151.979 143.472 151.979 143.472C151.979 143.472 153.63 149.406 154.645 149.352H154.689C154.983 149.288 155.306 148.21 155.644 146.696C156.477 142.987 157.384 136.642 158.094 136.088L158.584 135.696C158.607 135.668 158.633 135.643 158.663 135.622L158.844 135.461C160.579 133.917 164.234 130.487 164.234 130.487C164.234 130.487 164.494 128.846 167.693 129.35C170.893 129.855 166.272 139.297 166.272 139.297C165.631 142.301 164.646 150.028 164.646 150.028C164.347 153.243 164.523 161.881 164.523 161.881C164.523 161.881 166.037 156.854 165.939 155.021C165.841 153.189 168.948 148.7 169.859 147.544C170.771 146.388 174.838 146.794 173.706 149.014C172.574 151.234 173.034 158.27 172.589 160.426Z" fill="white"/>
<path opacity="0.4" d="M127.607 186.896C128.076 186.006 128.613 185.154 129.214 184.348C129.214 184.348 127.621 188.758 127.464 191.105C127.361 192.653 123.285 195.334 119.036 198.68C122.981 194.07 126.078 190.38 127.607 186.896Z" fill="white"/>
<path opacity="0.4" d="M129.214 184.348C129.821 183.485 130.365 182.775 130.365 182.775C130.365 182.775 128.405 177.253 128.861 175.518C129.317 173.783 128.297 159.524 128.297 159.524C128.297 159.524 126.97 149.818 125.661 147.368L128.709 152.694C128.709 152.694 128.41 156.903 129.277 159.211C130.145 161.519 131.237 168.56 131.237 168.56C131.237 168.56 129.954 174.479 130.39 176.611C130.826 178.742 132.791 177.968 132.791 177.968C132.791 177.968 133.756 181.868 129.214 184.348Z" fill="white"/>
<path opacity="0.4" d="M136.324 144.251C138.426 156.56 134.805 153.154 133.496 150.499C132.188 147.843 129.116 142.815 126.803 143.889C126.153 144.193 125.609 144.685 125.24 145.3C125.303 143.06 126.602 140.238 127.239 136.97C128.092 132.56 127.68 130.379 130.355 131.903C133.031 133.427 131.781 142.683 131.781 142.683L135.824 151.64C136.887 149.475 135.824 143.154 135.77 141.659C135.77 141.414 135.77 141.007 135.731 140.478C135.892 141.61 136.088 142.869 136.324 144.251Z" fill="white"/>
<path opacity="0.4" d="M141.469 132.089C141.469 132.089 139.2 129.12 137.23 129.272C136.892 129.29 136.566 129.407 136.294 129.608C136.021 129.809 135.814 130.086 135.696 130.404C135.696 130.286 135.696 130.178 135.736 130.08C136.064 127.895 137.235 120.942 137.98 120.168C139.087 119.021 140.846 118.056 142.502 120.658C143.429 122.128 143.032 133.785 143.032 133.785C143.032 133.785 146.873 129.149 148.039 128.017C149.206 126.886 152.743 124.818 153.689 127.214C154.635 129.61 151.146 137.014 151.146 137.014C151.876 138.729 151.964 143.477 151.964 143.477C151.964 143.477 153.616 149.411 154.63 149.357C152.396 153.561 150.906 144.266 150.906 144.266C151.239 142.345 150.053 138.18 150.171 137.082C150.289 135.985 148.113 132.104 144.448 133.162C140.783 134.221 143.429 148.705 143.429 148.705C142.704 149.859 142.283 151.177 142.204 152.537C141.072 151.141 142.204 147.147 142.204 147.147C141.199 143.325 141.469 132.089 141.469 132.089Z" fill="white"/>
<path opacity="0.4" d="M158.55 135.681C156.987 137.323 157.202 141.473 155.61 146.682C156.443 142.972 157.349 136.627 158.06 136.073L158.55 135.681Z" fill="white"/>
<path opacity="0.4" d="M172.588 160.426C172.143 162.572 173.216 174.337 173.029 175.925C172.843 177.512 163.484 188.175 163.014 188.983C162.543 189.792 156.286 193.393 154.831 195.113C148.03 203.046 144.316 210.352 141.331 217.678C142.455 213.88 143.812 210.156 145.393 206.525C148.613 199.288 149.926 197.999 151.857 195.931C153.787 193.864 153.577 189.468 153.577 189.468C155.001 189.125 156.462 188.952 157.928 188.954C160.378 188.954 167.63 178.615 170.124 176.802C172.618 174.989 173.064 174.989 170.124 170.99C167.184 166.992 168.017 171.632 167.135 171.48C166.253 171.329 165.773 173.259 165.773 173.259C165.464 169.182 162.833 164.439 162.279 163.253C161.725 162.068 163.621 155.114 163.229 153.179C162.837 151.243 164.915 139.459 164.915 139.459C164.915 139.459 164.655 134.936 160.559 134.922C159.93 134.887 159.309 135.074 158.805 135.451C160.539 133.907 164.195 130.477 164.195 130.477C164.195 130.477 164.454 128.836 167.654 129.34C170.854 129.845 166.233 139.287 166.233 139.287C165.591 142.291 164.606 150.018 164.606 150.018C164.307 153.233 164.484 161.872 164.484 161.872C164.484 161.872 165.998 156.844 165.9 155.012C165.802 153.179 168.909 148.691 169.82 147.534C170.731 146.378 174.798 146.784 173.666 149.004C172.535 151.224 173.034 158.27 172.588 160.426Z" fill="white"/>
<path d="M139.665 221.97C142.992 213.184 146.712 204.609 154.831 195.138C156.301 193.442 162.539 189.841 163.014 189.008C163.489 188.175 172.848 177.532 173.029 175.949C173.211 174.367 172.143 162.597 172.588 160.451C173.034 158.304 172.515 151.229 173.642 149.024C174.769 146.819 170.702 146.417 169.795 147.554C168.889 148.691 165.792 153.218 165.875 155.031C165.959 156.844 164.459 161.891 164.459 161.891C164.459 161.891 164.283 153.252 164.582 150.038C164.582 150.038 165.562 142.311 166.209 139.307C166.209 139.307 170.824 129.86 167.63 129.36C164.435 128.86 164.17 130.497 164.17 130.497C164.17 130.497 159.069 135.289 158.06 136.073C157.051 136.857 155.674 149.107 154.659 149.337C153.645 149.568 151.95 143.457 151.95 143.457C151.95 143.457 151.861 138.709 151.131 136.994C151.131 136.994 154.615 129.61 153.674 127.194C152.734 124.779 149.196 126.871 148.025 127.998C146.854 129.125 143.017 133.765 143.017 133.765C143.017 133.765 143.414 122.098 142.488 120.638C140.832 118.026 139.058 118.992 137.965 120.148C137.22 120.922 136.049 127.875 135.721 130.061C135.393 132.246 135.721 140.125 135.755 141.625C135.789 143.124 136.872 149.44 135.809 151.606L131.767 142.649C131.767 142.649 133.021 133.383 130.341 131.869C127.66 130.355 128.077 132.54 127.224 136.935C126.372 141.331 124.343 144.903 125.646 147.358C126.95 149.813 128.283 159.515 128.283 159.515C128.283 159.515 129.292 173.774 128.846 175.508C128.4 177.243 130.365 182.77 130.365 182.77C130.365 182.77 128.101 185.754 127.606 186.891C125.323 192.08 119.546 197.754 112.676 206.29" stroke="#263238" stroke-linecap="round" stroke-linejoin="round"/>
<path d="M143.032 133.795C142.463 134.636 142.174 135.636 142.208 136.651C142.208 138.513 143.429 148.705 143.429 148.705C143.429 148.705 142.542 149.754 142.498 150.665" stroke="#263238" stroke-linecap="round" stroke-linejoin="round"/>
<path d="M164.469 161.867C164.603 163.588 165.046 165.271 165.777 166.835C166.924 169.099 166.552 170.349 166.16 171.686C165.897 172.859 165.757 174.056 165.743 175.258" stroke="#263238" stroke-linecap="round" stroke-linejoin="round"/>
<path d="M136.255 149.612C136.255 149.612 137.108 152.317 135.525 153.6" stroke="#263238" stroke-linecap="round" stroke-linejoin="round"/>
<path d="M154.674 149.337C154.674 149.337 154.841 150.401 153.336 150.499" stroke="#263238" stroke-linecap="round" stroke-linejoin="round"/>
<path d="M164.778 137.087C164.778 137.087 161.005 132.971 158.075 136.073" stroke="#263238" stroke-linecap="round" stroke-linejoin="round"/>
<path d="M149.49 134.775C149.49 134.775 147.75 132.574 146.241 132.707C144.732 132.839 142.694 133.76 142.463 134.971" stroke="#263238" stroke-linecap="round" stroke-linejoin="round"/>
<path d="M166.483 170.363C167.092 171.234 167.535 172.209 167.791 173.24" stroke="#263238" stroke-linecap="round" stroke-linejoin="round"/>
<path d="M156.683 153.635C155.512 155.815 156.071 159.515 155.639 160.529" stroke="#263238" stroke-linecap="round" stroke-linejoin="round"/>
<path d="M144.276 150.014C144.551 151.268 143.683 153.311 143.551 154.816C143.419 156.32 144.649 158.642 144.423 160.754" stroke="#263238" stroke-linecap="round" stroke-linejoin="round"/>
<path d="M136.324 155.149C136.324 155.149 135.299 157.511 135.344 159.069C135.388 160.627 135.941 164.042 135.941 164.042" stroke="#263238" stroke-linecap="round" stroke-linejoin="round"/>
<path d="M128.792 155.036C128.792 155.036 128.42 157.486 129.282 159.211C130.145 160.936 130.983 164.601 130.983 164.601" stroke="#263238" stroke-linecap="round" stroke-linejoin="round"/>
<path d="M130.365 182.77C130.817 182.645 131.221 182.387 131.524 182.03C131.827 181.672 132.016 181.232 132.065 180.766" stroke="#263238" stroke-linecap="round" stroke-linejoin="round"/>
<path d="M154.998 190.238C154.998 190.238 155.933 193.702 154.14 195.931" stroke="#263238" stroke-linecap="round" stroke-linejoin="round"/>
<path d="M125.264 144.888C125.264 144.888 127.901 142.316 129.895 144.486" stroke="#263238" stroke-linecap="round" stroke-linejoin="round"/>
<path d="M135.736 130.08C135.736 130.08 137.696 128.027 139.989 130.222" stroke="#263238" stroke-linecap="round" stroke-linejoin="round"/>
</svg>
